<svg width="135" height="45" viewBox="0 0 135 45" fill="none" xmlns="http://www.w3.org/2000/svg">
<path d="M34.4184 5.91909C30.7793 2.27995 25.7371 0 20.1688 0C14.6004 0 9.55824 2.27995 5.91909 5.91909C2.27995 9.55824 0 14.6004 0 20.1688C0 25.7371 2.27995 30.7793 5.91909 34.4184C9.55824 38.0576 14.6004 40.3375 20.1688 40.3375C25.7371 40.3375 30.7793 38.0576 34.4184 34.4184C38.0576 30.7793 40.3375 25.7371 40.3375 20.1688C40.2937 14.6004 38.0576 9.55824 34.4184 5.91909ZM23.1064 14.3374C23.8518 17.4065 24.9479 20.5634 25.8248 23.5887C26.7017 26.614 27.4032 29.5078 27.4032 31.9631C27.4032 32.7962 27.3155 33.6292 27.1401 34.3746C26.9648 35.0323 26.7455 35.6461 26.4386 36.2599C25.3863 36.6984 24.2464 37.0053 23.1064 37.1807C23.2379 36.8738 23.4133 36.523 23.501 36.2161C23.9833 34.8569 24.1587 33.4538 24.1587 32.007C24.1587 30.0339 23.8079 28.017 23.3256 25.9563C22.5802 22.8872 21.4841 19.7303 20.6072 16.705C19.7303 13.6797 19.0288 10.7859 19.0288 8.37442C19.0288 7.1906 19.2042 6.09447 19.5111 5.17373C19.7742 4.38451 20.1688 3.68299 20.7387 3.02531C21.6157 3.06916 22.4487 3.15685 23.2818 3.28839C23.0625 3.77068 22.8872 4.25298 22.7118 4.73528C22.361 5.91909 22.2295 7.10291 22.2295 8.37442C22.2733 10.2598 22.6241 12.2766 23.1064 14.3374ZM17.1873 25.8686C16.4419 22.7995 15.3458 19.6426 14.4689 16.6173C13.592 13.592 12.8905 10.6982 12.8905 8.28673C12.8905 7.40983 12.9782 6.57677 13.1535 5.8314C13.2851 5.21757 13.5043 4.64758 13.8112 4.12144C14.8635 3.68299 16.0035 3.37608 17.1873 3.15685C17.0558 3.46377 16.9242 3.77068 16.7927 4.0776C16.3104 5.39295 16.135 6.83984 16.135 8.24289C16.135 10.2159 16.4858 12.2328 16.9681 14.2935C17.7134 17.3627 18.8096 20.5195 19.6865 23.5448C20.5634 26.5702 21.2649 29.4639 21.2649 31.9193C21.2649 33.1031 21.0895 34.1992 20.7826 35.1638C20.5195 35.953 20.0811 36.6545 19.5549 37.3561C18.678 37.3122 17.845 37.2245 17.0119 37.093C17.2311 36.6107 17.4504 36.0845 17.5819 35.6022C17.9327 34.4184 18.0642 33.1908 18.0642 31.9631C18.0204 29.9901 17.6696 27.9294 17.1873 25.8686ZM2.89378 20.1688C2.89378 15.3896 4.82297 11.0928 7.93597 7.93597C8.63749 7.23445 9.38286 6.62062 10.1721 6.05063C10.0405 6.75215 9.99669 7.49752 9.99669 8.24289C9.99669 10.2159 10.3475 12.2328 10.8297 14.2935C11.5751 17.3627 12.6712 20.5195 13.5481 23.5448C14.425 26.5702 15.1266 29.4639 15.1266 31.9193C15.1266 32.9715 14.995 33.8923 14.7758 34.7692C14.6004 35.2953 14.425 35.8215 14.1181 36.3038C11.7943 35.4269 9.68978 34.0677 7.93597 32.3577C4.82297 29.2447 2.89378 24.904 2.89378 20.1688ZM32.3577 32.3577C31.6562 33.0592 30.9108 33.6731 30.1216 34.243C30.2531 33.4977 30.297 32.7523 30.297 31.9631C30.297 29.9901 29.9462 27.9732 29.4639 25.9125C28.7186 22.8433 27.6224 19.6865 26.7455 16.6612C25.8686 13.6358 25.1671 10.7421 25.1671 8.33058C25.1671 7.32214 25.2986 6.35754 25.5179 5.52449C25.6932 4.99835 25.8686 4.51605 26.1317 4.03375C28.4555 4.91066 30.5601 6.26986 32.3139 8.02366C35.4269 11.1367 37.3561 15.4335 37.3561 20.2126C37.3999 24.904 35.4707 29.2447 32.3577 32.3577Z" fill="black"/>
<path d="M46.6953 8.72593C46.6953 4.0345 50.6414 0.219971 55.4205 0.219971V3.02606C52.1321 3.02606 49.4576 5.56908 49.4576 8.76977C49.4576 11.9705 52.1321 14.5135 55.4205 14.5135V17.3196C50.5975 17.2757 46.6953 13.4174 46.6953 8.72593Z" fill="black"/>
<path d="M57.4805 8.94516C57.4805 4.25374 61.4265 0.439209 66.2056 0.439209C71.0286 0.439209 74.9747 4.25374 74.9747 8.94516C74.9747 13.6366 71.0286 17.4511 66.2056 17.4511C61.3827 17.4511 57.4805 13.6366 57.4805 8.94516ZM60.2427 8.94516C60.2427 12.102 62.9173 14.6889 66.2056 14.6889C69.494 14.6889 72.1686 12.1459 72.1686 8.94516C72.1686 5.74447 69.494 3.20145 66.2056 3.20145C62.9611 3.20145 60.2427 5.78831 60.2427 8.94516Z" fill="black"/>
<path d="M81.2016 3.50702V8.11075H88.1291V10.9168H81.2016V17.1867H78.3955V0.700928H89.4883V3.50702H81.2016Z" fill="black"/>
<path d="M96.2397 3.50702V8.11075H103.167V10.9168H96.2397V17.1867H93.4336V0.700928H104.526V3.50702H96.2397Z" fill="black"/>
<path d="M134.999 17.1429C134.911 17.2744 132.5 20.7382 127.94 20.7382C125.572 20.7382 123.775 19.8613 121.889 18.9405C119.302 17.7128 116.452 16.3098 111.235 16.7482C110.358 16.8359 109.437 16.9675 108.429 17.1429V0.700928H120.355V3.50702H111.191V7.58461H118.952V10.3907H111.191V14.0298C117.022 13.5476 120.311 15.1698 123.073 16.4852C124.783 17.3621 126.186 18.0198 127.896 18.0198C130.921 18.0198 132.544 15.7837 132.631 15.6521L134.999 17.1429ZM132.544 14.1614H123.731V0.700928H132.544V3.50702H126.493V5.52389H131.623V8.28614H126.493V11.3991H132.544V14.1614Z" fill="black"/>
<path d="M71.2934 27.1392V31.7868H78.2209V34.5929H71.2934V40.8627H68.4873V24.377H79.5801V27.183H71.2934V27.1392Z" fill="black"/>
<path d="M110.052 40.8186C109.964 40.9502 107.552 44.4139 102.993 44.4139C100.625 44.4139 98.8272 43.537 96.9419 42.6163C94.355 41.3886 91.5051 39.9856 86.2875 40.424C85.4106 40.5117 84.4899 40.6433 83.4814 40.8186V24.3767H95.4073V27.1828H86.2437V31.2604H94.0043V33.9788H86.2437V37.6179C92.0751 37.1356 95.3635 38.7579 98.1257 40.0733C99.8357 40.9502 101.239 41.6078 102.949 41.6078C105.974 41.6078 107.596 39.3717 107.684 39.2402L110.052 40.8186ZM107.596 37.8372H98.7834V24.3767H107.596V27.1828H101.546V29.1997H106.676V31.9619H101.546V35.0749H107.596V37.8372Z" fill="black"/>
<path d="M122.504 38.0564V40.8625H112.464V24.3767H115.27V38.0564H122.504Z" fill="black"/>
<path d="M64.6281 40.9072C63.1812 39.5041 62.0851 38.3203 61.3835 37.4434C63.0058 35.295 63.8389 32.6643 63.8389 29.5074V29.2005V29.0251H60.9889V29.9459C60.9889 31.5243 60.8574 32.6643 60.682 33.4535C60.5066 34.155 60.1997 34.8127 59.8051 35.4265C58.3144 33.5412 56.8675 31.3489 55.4644 28.8936C56.6044 28.2359 57.569 27.359 58.3144 26.3506C59.1036 25.2983 59.4982 24.1583 59.4982 23.0622C59.4982 22.0537 59.0597 21.133 58.2705 20.4315C57.4375 19.6861 56.3413 19.2915 54.9383 19.2915C53.9737 19.2915 53.0968 19.4669 52.3514 19.8615C51.6061 20.2561 50.9922 20.8261 50.5099 21.5276C50.0715 22.2291 49.8523 22.9745 49.8523 23.7199C49.8523 24.0268 49.8961 24.3775 49.9838 24.7283C50.0715 25.0791 50.203 25.4298 50.3784 25.8244C50.5538 26.219 50.9484 26.9206 51.5622 27.8851C51.6061 27.929 51.6499 28.0167 51.6938 28.0605C50.2907 28.8059 49.1069 29.8143 48.1861 31.042C47.2216 32.3135 46.7393 33.7166 46.7393 35.2073C46.7393 36.3473 47.0462 37.4872 47.6162 38.4957C48.23 39.548 49.0192 40.3372 50.0715 40.9072C51.1238 41.4771 52.3076 41.7841 53.7106 41.7841C54.8068 41.7841 55.859 41.6087 56.7798 41.2141C57.6567 40.8633 58.5336 40.2933 59.4105 39.5041L59.8051 39.9864C60.1559 40.381 60.4628 40.7318 60.8135 41.0825L60.8574 41.1264H64.9788L64.6281 40.9072ZM56.1221 25.0352C55.6837 25.6929 55.026 26.2629 54.1929 26.7452C54.1052 26.6575 54.0614 26.5698 54.0175 26.4821C53.6229 25.8683 53.3599 25.386 53.2283 25.1229C53.0968 24.8598 53.0091 24.5968 52.9653 24.2898C52.8776 24.0268 52.8776 23.7637 52.8776 23.5445C52.8776 23.106 53.053 22.6676 53.3599 22.2291C53.6668 21.7907 54.1491 21.6153 54.8068 21.6153C55.1137 21.6153 55.4644 21.703 55.8152 21.8345C56.166 22.0099 56.3852 22.1853 56.5606 22.4922C56.7359 22.7991 56.8236 23.0622 56.8236 23.2814C56.8236 23.7637 56.6044 24.3775 56.1221 25.0352ZM53.9299 39.4164C53.2722 39.4164 52.5707 39.241 51.8253 38.8464C51.1238 38.4518 50.5538 37.9695 50.203 37.3119C49.8084 36.6542 49.633 35.9527 49.633 35.1634C49.633 34.1988 49.94 33.2781 50.5099 32.3574C51.0799 31.4805 51.8691 30.7789 52.8776 30.2089C53.6229 31.612 54.4998 33.015 55.5083 34.4181C56.4729 35.8211 57.2621 36.8734 57.8321 37.6188C56.9113 38.408 56.1221 38.8464 55.5521 39.0657C54.9383 39.2849 54.3683 39.4164 53.9299 39.4164Z" fill="black"/>
</svg>
