<svg width="28" height="32" viewBox="0 0 28 32" fill="none" xmlns="http://www.w3.org/2000/svg">
<path d="M10.0779 3.58629C9.10547 4.55899 8.5592 5.87823 8.5592 7.2538V9.66302H7.21711V7.2538C7.21711 6.39634 7.38595 5.54727 7.71398 4.75509C8.04202 3.9629 8.52283 3.24311 9.12895 2.63681C9.73507 2.0305 10.4546 1.54956 11.2466 1.22144C12.0385 0.893316 12.8872 0.724434 13.7444 0.724434C14.6016 0.724434 15.4504 0.893316 16.2423 1.22144C17.0342 1.54956 17.7538 2.0305 18.3599 2.63681C18.966 3.24311 19.4468 3.9629 19.7748 4.75509C20.1029 5.54727 20.2717 6.39634 20.2717 7.2538V9.66302H18.9296V7.2538C18.9296 5.87823 18.3834 4.55899 17.411 3.58629C16.4385 2.61358 15.1197 2.06711 13.7444 2.06711C12.3692 2.06711 11.0503 2.61358 10.0779 3.58629Z" fill="white" stroke="#8953E3" stroke-width="0.61"/>
<path d="M9.16935 10.273H18.3197V12.9949C18.3197 13.3347 18.4546 13.6606 18.6948 13.9009L18.9105 13.6853L18.6948 13.9009C18.9351 14.1413 19.2609 14.2763 19.6007 14.2763C19.9405 14.2763 20.2663 14.1413 20.5066 13.9009C20.7468 13.6606 20.8817 13.3347 20.8817 12.9949V10.273H27.1039V29.4962C27.1039 29.9332 26.9304 30.3524 26.6215 30.6614C26.3126 30.9704 25.8937 31.144 25.4569 31.144H2.03214C1.59535 31.144 1.17643 30.9704 0.867533 30.6614C0.558636 30.3524 0.385078 29.9332 0.385078 29.4962V10.273H6.60729V12.9949C6.60729 13.3347 6.74223 13.6606 6.98246 13.9009C7.22269 14.1413 7.54853 14.2763 7.88832 14.2763C8.22811 14.2763 8.55396 14.1413 8.79419 13.9009C9.03442 13.6606 9.16935 13.3347 9.16935 12.9949V10.273Z" fill="white" stroke="#8953E3" stroke-width="0.61"/>
<path d="M17.2455 20.8361C17.4568 20.8361 17.6292 20.9084 17.7626 21.0529C17.9072 21.1863 17.9794 21.3587 17.9794 21.5699C17.9794 21.7812 17.9072 21.9591 17.7626 22.1036C17.6292 22.2371 17.4568 22.3038 17.2455 22.3038H14.6435V24.8889C14.6435 25.1001 14.5713 25.278 14.4267 25.4226C14.2933 25.5671 14.1209 25.6394 13.9096 25.6394C13.6984 25.6394 13.5204 25.5671 13.3759 25.4226C13.2425 25.278 13.1757 25.1001 13.1757 24.8889V22.3038H10.5737C10.3625 22.3038 10.1845 22.2371 10.04 22.1036C9.90656 21.9591 9.83984 21.7812 9.83984 21.5699C9.83984 21.3587 9.90656 21.1863 10.04 21.0529C10.1845 20.9084 10.3625 20.8361 10.5737 20.8361H13.1757V18.2343C13.1757 18.0231 13.2425 17.8507 13.3759 17.7173C13.5204 17.5728 13.6984 17.5005 13.9096 17.5005C14.1209 17.5005 14.2933 17.5728 14.4267 17.7173C14.5713 17.8507 14.6435 18.0231 14.6435 18.2343V20.8361H17.2455Z" fill="#8953E3"/>
<path d="M17.2455 20.8361C17.4568 20.8361 17.6292 20.9084 17.7626 21.0529C17.9072 21.1863 17.9794 21.3587 17.9794 21.5699C17.9794 21.7812 17.9072 21.9591 17.7626 22.1036C17.6292 22.2371 17.4568 22.3038 17.2455 22.3038H14.6435V24.8889C14.6435 25.1001 14.5713 25.278 14.4267 25.4226C14.2933 25.5671 14.1209 25.6394 13.9096 25.6394C13.6984 25.6394 13.5204 25.5671 13.3759 25.4226C13.2425 25.278 13.1757 25.1001 13.1757 24.8889V22.3038H10.5737C10.3625 22.3038 10.1845 22.2371 10.04 22.1036C9.90656 21.9591 9.83984 21.7812 9.83984 21.5699C9.83984 21.3587 9.90656 21.1863 10.04 21.0529C10.1845 20.9084 10.3625 20.8361 10.5737 20.8361H13.1757V18.2343C13.1757 18.0231 13.2425 17.8507 13.3759 17.7173C13.5204 17.5728 13.6984 17.5005 13.9096 17.5005C14.1209 17.5005 14.2933 17.5728 14.4267 17.7173C14.5713 17.8507 14.6435 18.0231 14.6435 18.2343V20.8361H17.2455Z" stroke="#8953E3"/>
</svg>
