<svg width="26" height="30" viewBox="0 0 26 30" fill="none" xmlns="http://www.w3.org/2000/svg">
<path d="M8.33219 6.48312C8.33219 5.25495 8.81992 4.07709 9.68808 3.20865C10.5562 2.3402 11.7337 1.85232 12.9615 1.85232C14.1893 1.85232 15.3667 2.3402 16.2349 3.20865C17.1031 4.07709 17.5908 5.25495 17.5908 6.48312V9.05784H19.4425V6.48312C19.4425 5.63174 19.2749 4.7887 18.9492 4.00213C18.6235 3.21557 18.1461 2.50087 17.5443 1.89886C16.9424 1.29685 16.228 0.819305 15.4417 0.493498C14.6554 0.167691 13.8126 0 12.9615 0C12.1104 0 11.2676 0.167691 10.4813 0.493498C9.69499 0.819305 8.98053 1.29685 8.37872 1.89886C7.7769 2.50087 7.29951 3.21557 6.97381 4.00213C6.64811 4.7887 6.48047 5.63174 6.48047 6.48312V9.05784H8.33219V6.48312Z" fill="#323232"/>
<path d="M19.443 9.05786V11.929C19.443 12.1746 19.3454 12.4102 19.1718 12.5838C18.9982 12.7575 18.7627 12.8551 18.5171 12.8551C18.2716 12.8551 18.0361 12.7575 17.8624 12.5838C17.6888 12.4102 17.5913 12.1746 17.5913 11.929V9.05786H8.3327V11.929C8.3327 12.1746 8.23515 12.4102 8.06152 12.5838C7.88789 12.7575 7.65239 12.8551 7.40684 12.8551C7.16129 12.8551 6.9258 12.7575 6.75216 12.5838C6.57853 12.4102 6.48099 12.1746 6.48099 11.929V9.05786H0V27.5811C0 28.0723 0.19509 28.5435 0.542353 28.8908C0.889616 29.2382 1.36061 29.4334 1.85171 29.4334H24.0722C24.5633 29.4334 25.0343 29.2382 25.3816 28.8908C25.7289 28.5435 25.924 28.0723 25.924 27.5811V9.05786H19.443Z" fill="#323232"/>
</svg>
