<svg width="66" height="41" viewBox="0 0 66 41" fill="none" xmlns="http://www.w3.org/2000/svg">
<rect width="65.4545" height="40.7273" rx="2" fill="white"/>
<mask id="mask0" style="mask-type:alpha" maskUnits="userSpaceOnUse" x="0" y="0" width="66" height="41">
<rect width="65.4545" height="40.7273" rx="2" fill="#0E0E11"/>
</mask>
<g mask="url(#mask0)">
<path fill-rule="evenodd" clip-rule="evenodd" d="M21.5788 17.4914L12.4593 21.433C12.4453 21.2753 12.4374 21.1157 12.4374 20.9545C12.4374 18.0612 14.7757 15.7161 17.6604 15.7161C19.2212 15.7161 20.6219 16.4031 21.5788 17.4914ZM17.6604 11.7985C21.9637 11.7985 25.5709 14.785 26.5356 18.8039L22.8563 20.4173L22.8554 20.4096L19.0909 22.0683L10.0608 26.0285C9.06087 24.5265 8.5285 22.7605 8.53126 20.9545C8.53126 15.8978 12.6184 11.7985 17.6604 11.7985ZM24.0395 27.5042C20.771 30.6156 16.4465 30.921 12.6469 28.6075L14.7938 25.3338C16.9559 26.63 19.1281 26.4198 21.3101 24.7016L24.0395 27.504V27.5042ZM27.7569 25.2376L27.7336 7.92334H31.0045V24.7703C31.0045 24.9317 31.0245 25.0741 31.2359 25.1565L34.0812 26.2663L32.7993 29.6092L29.4662 28.1949C28.2024 27.6585 27.759 26.8813 27.7566 25.2376H27.7569Z" fill="#323232"/>
<path fill-rule="evenodd" clip-rule="evenodd" d="M40.0731 24.9464C38.8472 23.9901 38.0577 22.4981 38.0577 20.8199C38.0577 19.328 38.682 17.9832 39.682 17.0311L37.5694 13.5974C35.4457 15.2847 34.082 17.8919 34.082 20.8199C34.082 23.9762 35.6652 26.7604 38.0779 28.4207L40.0731 24.9464Z" fill="#323232"/>
<path fill-rule="evenodd" clip-rule="evenodd" d="M41.5064 15.9018C42.0719 15.6979 42.6684 15.5938 43.2694 15.5943C45.4999 15.5943 47.4022 17.0011 48.1452 18.9778L52.1933 18.6386C51.2161 14.6037 47.5927 11.6072 43.2694 11.6072C42.0857 11.6064 40.913 11.8358 39.8164 12.2828L41.5064 15.9018Z" fill="#323232"/>
<path fill-rule="evenodd" clip-rule="evenodd" d="M48.4747 21.0725C48.3428 23.841 46.0637 26.0449 43.2708 26.0449C42.833 26.0449 42.4082 25.9897 42.0021 25.8879L40.4141 29.5754C41.3363 29.8781 42.3007 30.0322 43.2711 30.032C48.2174 30.032 52.2485 26.1102 52.4469 21.1981L48.4747 21.0725Z" fill="#323232"/>
</g>
</svg>
