<svg width="49" height="49" viewBox="0 0 49 49" fill="none" xmlns="http://www.w3.org/2000/svg">
<path d="M31.9963 24.3781C31.9963 26.3986 31.1936 28.3363 29.765 29.765C28.3363 31.1936 26.3986 31.9963 24.3781 31.9963C22.3576 31.9963 20.4199 31.1936 18.9913 29.765C17.5626 28.3363 16.7599 26.3986 16.7599 24.3781C16.7599 23.9439 16.8057 23.5198 16.8844 23.1084H14.2206V33.2583C14.2206 33.9643 14.7919 34.5357 15.4979 34.5357H33.2609C33.5992 34.535 33.9234 34.4001 34.1624 34.1606C34.4014 33.9212 34.5357 33.5967 34.5357 33.2583V23.1084H31.8718C31.9506 23.5198 31.9963 23.9439 31.9963 24.3781ZM24.3781 29.4569C25.0452 29.4567 25.7058 29.3251 26.3221 29.0697C26.9383 28.8142 27.4983 28.4399 27.9699 27.9681C28.4415 27.4962 28.8155 26.9361 29.0707 26.3197C29.3258 25.7033 29.457 25.0427 29.4569 24.3756C29.4567 23.7084 29.3251 23.0479 29.0697 22.4316C28.8142 21.8153 28.4399 21.2554 27.9681 20.7838C27.4962 20.3122 26.9361 19.9381 26.3197 19.683C25.7033 19.4279 25.0427 19.2966 24.3756 19.2968C23.0283 19.2971 21.7363 19.8327 20.7838 20.7856C19.8314 21.7385 19.2965 23.0308 19.2968 24.3781C19.2971 25.7254 19.8327 27.0174 20.7856 27.9699C21.7385 28.9223 23.0308 29.4572 24.3781 29.4569ZM30.4726 19.0454H33.5174C33.7196 19.0454 33.9137 18.9652 34.0569 18.8224C34.2002 18.6796 34.281 18.4859 34.2817 18.2836V15.2389C34.2817 15.0361 34.2012 14.8417 34.0578 14.6984C33.9145 14.555 33.7201 14.4745 33.5174 14.4745H30.4726C30.2699 14.4745 30.0755 14.555 29.9322 14.6984C29.7888 14.8417 29.7083 15.0361 29.7083 15.2389V18.2836C29.7108 18.7026 30.0536 19.0454 30.4726 19.0454ZM24.3781 0C17.9126 0 11.712 2.5684 7.14018 7.14018C2.5684 11.712 0 17.9126 0 24.3781C0 30.8436 2.5684 37.0443 7.14018 41.616C11.712 46.1878 17.9126 48.7562 24.3781 48.7562C27.5795 48.7562 30.7495 48.1257 33.7072 46.9005C36.6649 45.6754 39.3523 43.8797 41.616 41.616C43.8797 39.3523 45.6754 36.6649 46.9005 33.7072C48.1257 30.7495 48.7562 27.5795 48.7562 24.3781C48.7562 21.1767 48.1257 18.0067 46.9005 15.049C45.6754 12.0913 43.8797 9.4039 41.616 7.14018C39.3523 4.87646 36.6649 3.08079 33.7072 1.85567C30.7495 0.630558 27.5795 0 24.3781 0ZM37.075 34.2538C37.075 35.8053 35.8053 37.075 34.2538 37.075H14.5024C12.9509 37.075 11.6812 35.8053 11.6812 34.2538V14.5024C11.6812 12.9509 12.9509 11.6812 14.5024 11.6812H34.2538C35.8053 11.6812 37.075 12.9509 37.075 14.5024V34.2538Z" fill="white"/>
</svg>
