<svg width="66" height="41" viewBox="0 0 66 41" fill="none" xmlns="http://www.w3.org/2000/svg">
<path d="M3.77349 6.57488e-05C2.10852 6.57488e-05 0.757812 1.35998 0.757812 3.03791V37.9622C0.757812 39.6398 2.10872 41 3.77349 41H62.5524C64.2173 41 65.5681 39.6401 65.5681 37.9622V3.03785C65.5681 1.36018 64.2172 0 62.5524 0H3.77343L3.77349 6.57488e-05ZM22.0095 4.93533C25.7089 4.93533 29.1065 6.23186 31.7735 8.39754C29.5296 10.4201 27.856 13.0773 27.0302 16.0891H28.3244C29.0866 13.6045 30.4711 11.3923 32.2961 9.63799C34.121 11.3923 35.5055 13.6045 36.2677 16.0891H37.5822C36.745 13.0931 35.069 10.4518 32.8267 8.44246C35.4989 6.24929 38.9098 4.93527 42.6252 4.93527C51.199 4.93527 58.1492 11.9374 58.1492 20.5755C58.1492 29.2136 51.199 36.2157 42.6252 36.2157C38.8481 36.2157 35.3846 34.8577 32.693 32.5984C35.1007 30.4884 36.8757 27.6597 37.6875 24.4417H36.4216C35.7008 27.1426 34.2501 29.5448 32.296 31.4233C30.342 29.5448 28.8933 27.1426 28.1725 24.4417H26.9674C27.7839 27.6131 29.5357 30.4022 31.9071 32.4924C29.2205 34.7236 25.7707 36.0647 22.0094 36.0647C13.4357 36.0647 6.48541 29.0963 6.48541 20.5C6.48541 11.9038 13.4357 4.93533 22.0095 4.93533ZM41.4606 15.93C39.5953 15.93 37.7806 17.5727 37.7806 20.6571C37.7806 22.7024 38.7608 24.052 40.689 24.052C41.2342 24.0522 42.1027 23.8276 42.1027 23.8276L42.3903 22.0404C42.3903 22.0404 41.5976 22.4443 41.0535 22.4443C39.9074 22.4443 39.4475 21.5564 39.4475 20.6021C39.4475 18.6661 40.4336 17.6009 41.5315 17.6009C42.3548 17.6009 43.0161 18.0701 43.0161 18.0701L43.2794 16.3319C43.2794 16.3319 42.3005 15.93 41.4606 15.93H41.4606ZM57.1427 16.081L55.5204 16.085L55.1721 18.2354C55.1721 18.2354 54.5622 17.4009 53.6085 17.4009C52.1256 17.4009 50.8905 19.1754 50.8905 21.2162C50.8905 22.5334 51.5479 23.8255 52.8956 23.8255C53.865 23.8255 54.4024 23.1544 54.4024 23.1544L54.3315 23.7276H55.9073L57.1427 16.081ZM10.6778 16.1034L9.38567 23.7684H10.9431L11.9275 17.9886L12.0733 23.7684H13.1872L15.2652 17.9886L14.3436 23.7684H15.9983L17.2743 16.1034H14.7143L13.1204 20.806L13.0373 16.1034H10.6779L10.6778 16.1034ZM26.9492 16.6012C26.914 16.6368 26.0075 21.9029 26.0075 22.5443C26.0075 23.4939 26.5359 23.9181 27.2794 23.9113C27.8121 23.9067 28.2247 23.7719 28.4156 23.7154C28.4355 23.71 28.4743 23.6991 28.4743 23.6991L28.6748 22.3281C28.5658 22.3281 28.4052 22.375 28.2636 22.375C27.7085 22.375 27.647 22.0775 27.6824 21.8568L28.13 19.0597H28.9745L29.1791 17.5437H28.3832L28.5452 16.6012H26.9492ZM45.7746 17.3724C44.6875 17.3724 43.8546 17.7335 43.8546 17.7335L43.6237 19.1413C43.6237 19.1413 44.3116 18.8536 45.3513 18.8536C45.9416 18.8536 46.374 18.9216 46.374 19.4167C46.374 19.7174 46.3214 19.8288 46.3214 19.8288C46.3214 19.8288 45.8546 19.788 45.6389 19.788C44.268 19.788 42.8277 20.3932 42.8277 22.2138C42.8277 23.6483 43.7732 23.9765 44.3589 23.9765C45.4774 23.9765 45.9597 23.228 45.9852 23.2257L45.9325 23.8501H47.328L47.9518 19.3453C47.952 17.4339 46.3358 17.3724 45.7746 17.3724V17.3724ZM19.5973 17.3806C18.5063 17.3806 17.6692 17.7417 17.6692 17.7417L17.4383 19.1495C17.4383 19.1495 18.1286 18.8617 19.172 18.8617C19.7645 18.8617 20.1989 18.93 20.1989 19.4248C20.1989 19.7254 20.1462 19.837 20.1462 19.837C20.1462 19.837 19.678 19.7962 19.4616 19.7962C18.0855 19.7962 16.6404 20.4004 16.6404 22.2199C16.6404 23.6536 17.5878 23.9827 18.1755 23.9827C19.2981 23.9827 19.7822 23.2341 19.808 23.2319L19.7553 23.8562H21.1568L21.7826 19.3535C21.7826 17.4431 20.1606 17.3805 19.5973 17.3805V17.3806ZM24.5472 17.3806C23.3756 17.3806 22.1857 17.857 22.1857 19.484C22.1857 21.3276 24.1685 21.1413 24.1685 21.9179C24.1685 22.4363 23.6151 22.4791 23.1882 22.4791C22.4494 22.4791 21.785 22.2219 21.7826 22.2342L21.57 23.6419C21.6082 23.6539 22.0196 23.8398 23.3482 23.8398C23.705 23.8398 25.7441 23.9311 25.7441 21.7915C25.7441 19.7912 23.8566 20.1876 23.8566 19.384C23.8566 18.984 24.163 18.8577 24.7254 18.8577C24.9487 18.8577 25.809 18.9291 25.809 18.9291L26.0075 17.507C26.0075 17.5072 25.4524 17.3806 24.5472 17.3806H24.5472ZM31.8707 17.3806C30.2427 17.3809 29.0373 19.1444 29.0373 21.1366C29.0373 23.4359 30.5476 23.9827 31.8343 23.9827C33.022 23.9827 33.5457 23.7154 33.5457 23.7154L33.8292 22.1465C33.8292 22.1465 32.9257 22.5464 32.1097 22.5464C30.3711 22.5464 30.6758 21.2427 30.6758 21.2427H33.9669C33.9669 21.2427 34.1796 20.1891 34.1796 19.7594C34.1796 18.6874 33.6485 17.3806 31.8708 17.3806H31.8707ZM37.7665 17.4479C37.033 17.4479 36.4884 18.4415 36.4884 18.4415L36.6343 17.5295H35.1112L34.0885 23.8256H35.7715C36.2482 21.137 36.3352 18.9539 37.4728 19.3535C37.6719 18.3128 37.8651 17.9108 38.0824 17.4703C38.0824 17.4703 37.9803 17.4479 37.7664 17.4479H37.7665ZM51.4029 17.4479C50.6695 17.4479 50.125 18.4415 50.125 18.4415L50.2708 17.5295H48.7477L47.7249 23.8256H49.406C49.8828 21.137 49.9721 18.9539 51.1092 19.3535C51.3087 18.3128 51.5017 17.9108 51.7189 17.4703C51.7189 17.4703 51.6168 17.4479 51.403 17.4479H51.4029ZM31.8626 18.8006C32.7873 18.8006 32.6181 19.8519 32.6181 19.9369H30.7973C30.7973 19.8284 30.9696 18.8006 31.8627 18.8006H31.8626ZM53.8637 18.923C54.4522 18.9228 54.7549 19.3232 54.7549 20.2654C54.7549 21.1203 54.3269 22.2628 53.4404 22.2628C52.852 22.2628 52.5756 21.7733 52.5756 21.006C52.5756 19.7513 53.1454 18.923 53.8637 18.923H53.8637ZM45.7766 21.0652C46.0166 21.0655 46.0663 21.089 46.1067 21.0999C46.1009 21.0989 46.0998 21.1 46.1229 21.1039C46.1533 21.3843 45.9547 22.6994 44.9948 22.6994C44.4998 22.6994 44.3731 22.3029 44.3731 22.0689C44.3731 21.6127 44.6088 21.0652 45.7766 21.0652ZM19.5994 21.0713C19.872 21.0716 19.9018 21.1023 19.9477 21.1101C19.9782 21.3903 19.7788 22.7035 18.8155 22.7035C18.3186 22.7035 18.1897 22.3089 18.1897 22.0751C18.1897 21.6191 18.4269 21.0713 19.5994 21.0713Z" fill="white"/>
</svg>
