<svg width="244" height="183" viewBox="0 0 244 183" fill="none" xmlns="http://www.w3.org/2000/svg">
<path d="M121.942 182.022C174.198 182.022 216.56 179.549 216.56 176.498C216.56 173.447 174.198 170.974 121.942 170.974C69.6853 170.974 27.3232 173.447 27.3232 176.498C27.3232 179.549 69.6853 182.022 121.942 182.022Z" fill="#F5F5F5"/>
<path d="M244 159.77H0V159.892H244V159.77Z" fill="#E0E0E0"/>
<path d="M53.3949 165.624H25.2031V165.746H53.3949V165.624Z" fill="#E0E0E0"/>
<path d="M115.002 162.972H102.158V163.094H115.002V162.972Z" fill="#E0E0E0"/>
<path d="M144.721 162.908H119.696V163.03H144.721V162.908Z" fill="#E0E0E0"/>
<path d="M192.354 164.374H186.259V164.496H192.354V164.374Z" fill="#E0E0E0"/>
<path d="M165.214 164.374H140.901V164.496H165.214V164.374Z" fill="#E0E0E0"/>
<path d="M62.9513 165.624H58.1201V165.746H62.9513V165.624Z" fill="#E0E0E0"/>
<path d="M217.444 164.374H196.338V164.496H217.444V164.374Z" fill="#E0E0E0"/>
<path d="M115.654 0H21.4115C20.8183 0.000546893 20.2407 0.190058 19.7625 0.541047C19.2842 0.892036 18.9303 1.38625 18.7519 1.952C18.6715 2.20616 18.6304 2.4711 18.6299 2.73768V135.22C18.6299 135.958 18.9228 136.666 19.4443 137.189C19.9658 137.711 20.6733 138.005 21.4115 138.006H115.654C116.393 138.006 117.102 137.713 117.624 137.19C118.147 136.668 118.441 135.959 118.441 135.22V2.78648C118.441 2.04746 118.147 1.33871 117.624 0.816141C117.102 0.293575 116.393 0 115.654 0ZM118.319 135.22C118.317 135.926 118.036 136.603 117.537 137.103C117.037 137.602 116.36 137.883 115.654 137.884H21.4115C20.7057 137.883 20.0292 137.602 19.5306 137.102C19.0319 136.603 18.7519 135.926 18.7519 135.22V2.76208C18.7519 2.05626 19.0319 1.37928 19.5306 0.879731C20.0292 0.380184 20.7057 0.0988912 21.4115 0.0975985H115.654C116.36 0.10017 117.036 0.381717 117.535 0.880848C118.034 1.37998 118.316 2.05621 118.319 2.76208V135.22Z" fill="#E0E0E0"/>
<path d="M221.217 0H126.984C126.249 0.00124357 125.545 0.291877 125.023 0.808905C124.502 1.32593 124.205 2.02769 124.197 2.76208V135.22C124.197 135.959 124.491 136.668 125.013 137.19C125.536 137.713 126.245 138.006 126.984 138.006H221.217C221.954 138.004 222.66 137.709 223.181 137.187C223.701 136.665 223.993 135.957 223.993 135.22V2.76208C223.987 2.02898 223.692 1.32795 223.172 0.810923C222.652 0.293898 221.95 0.00253979 221.217 0ZM223.881 135.22C223.88 135.926 223.599 136.603 223.099 137.103C222.6 137.602 221.923 137.883 221.217 137.884H126.984C126.277 137.884 125.599 137.604 125.1 137.104C124.6 136.604 124.319 135.927 124.319 135.22V2.76208C124.321 2.05581 124.602 1.37884 125.101 0.879433C125.601 0.380025 126.277 0.0988885 126.984 0.0975985H221.217C221.922 0.10017 222.599 0.381717 223.098 0.880848C223.597 1.37998 223.878 2.05621 223.881 2.76208V135.22Z" fill="#E0E0E0"/>
<path d="M181.062 23.9776H232.716C232.716 23.9776 229.598 18.3266 223.166 20.0736C223.166 20.0736 223.947 10.6308 218.877 9.11802C213.806 7.60522 211.069 13.4466 211.069 13.4466C211.069 13.4466 207.56 2.53002 200.933 3.89642C194.306 5.26282 191.578 16.5844 191.578 16.5844C191.578 16.5844 181.842 13.0611 181.062 23.9776Z" fill="#F5F5F5"/>
<path d="M106.381 42.4565H158.055C158.055 42.4565 154.932 36.8006 148.5 38.5525C148.5 38.5525 149.281 29.1097 144.211 27.5921C139.14 26.0744 136.403 31.9255 136.403 31.9255C136.403 31.9255 132.894 21.0089 126.267 22.3705C119.64 23.732 116.907 35.0585 116.907 35.0585C116.907 35.0585 107.162 31.54 106.381 42.4565Z" fill="#F5F5F5"/>
<path d="M105.44 7.63306H18.8057V159.772H105.44V7.63306Z" fill="#F5F5F5"/>
<path d="M91.0074 56.2162H36.0879V159.892H91.0074V56.2162Z" fill="#FAFAFA"/>
<path d="M87.5351 59.5098H40.043V159.891H87.5351V59.5098Z" fill="#E6E6E6"/>
<path d="M108.58 8.74105H18.7881V1.97737C19.0141 1.38898 19.4171 0.885226 19.9416 0.535597C20.466 0.185968 21.086 0.00769412 21.7161 0.0253678H105.511L105.55 0.122968L107.75 6.40353L108.58 8.74105Z" fill="#EBEBEB"/>
<path d="M23.141 12.8237C25.6232 12.8237 27.6354 10.9949 27.6354 8.7391C27.6354 6.48326 25.6232 4.65454 23.141 4.65454C20.6587 4.65454 18.6465 6.48326 18.6465 8.7391C18.6465 10.9949 20.6587 12.8237 23.141 12.8237Z" fill="#EBEBEB"/>
<path d="M32.1351 12.8237C34.6173 12.8237 36.6296 10.9949 36.6296 8.7391C36.6296 6.48326 34.6173 4.65454 32.1351 4.65454C29.6529 4.65454 27.6406 6.48326 27.6406 8.7391C27.6406 10.9949 29.6529 12.8237 32.1351 12.8237Z" fill="#EBEBEB"/>
<path d="M41.1292 12.8237C43.6115 12.8237 45.6237 10.9949 45.6237 8.7391C45.6237 6.48326 43.6115 4.65454 41.1292 4.65454C38.647 4.65454 36.6348 6.48326 36.6348 8.7391C36.6348 10.9949 38.647 12.8237 41.1292 12.8237Z" fill="#EBEBEB"/>
<path d="M50.1214 12.8237C52.6037 12.8237 54.6159 10.9949 54.6159 8.7391C54.6159 6.48326 52.6037 4.65454 50.1214 4.65454C47.6392 4.65454 45.627 6.48326 45.627 8.7391C45.627 10.9949 47.6392 12.8237 50.1214 12.8237Z" fill="#EBEBEB"/>
<path d="M59.1175 12.8237C61.5998 12.8237 63.612 10.9949 63.612 8.7391C63.612 6.48326 61.5998 4.65454 59.1175 4.65454C56.6353 4.65454 54.623 6.48326 54.623 8.7391C54.623 10.9949 56.6353 12.8237 59.1175 12.8237Z" fill="#EBEBEB"/>
<path d="M68.1097 12.8237C70.592 12.8237 72.6042 10.9949 72.6042 8.7391C72.6042 6.48326 70.592 4.65454 68.1097 4.65454C65.6275 4.65454 63.6152 6.48326 63.6152 8.7391C63.6152 10.9949 65.6275 12.8237 68.1097 12.8237Z" fill="#EBEBEB"/>
<path d="M77.098 12.8237C79.5802 12.8237 81.5925 10.9949 81.5925 8.7391C81.5925 6.48326 79.5802 4.65454 77.098 4.65454C74.6158 4.65454 72.6035 6.48326 72.6035 8.7391C72.6035 10.9949 74.6158 12.8237 77.098 12.8237Z" fill="#EBEBEB"/>
<path d="M86.0941 12.8237C88.5763 12.8237 90.5886 10.9949 90.5886 8.7391C90.5886 6.48326 88.5763 4.65454 86.0941 4.65454C83.6119 4.65454 81.5996 6.48326 81.5996 8.7391C81.5996 10.9949 83.6119 12.8237 86.0941 12.8237Z" fill="#EBEBEB"/>
<path d="M95.0882 12.8237C97.5705 12.8237 99.5827 10.9949 99.5827 8.7391C99.5827 6.48326 97.5705 4.65454 95.0882 4.65454C92.606 4.65454 90.5938 6.48326 90.5938 8.7391C90.5938 10.9949 92.606 12.8237 95.0882 12.8237Z" fill="#EBEBEB"/>
<path d="M108.58 8.73957C108.58 10.9941 106.564 12.8241 104.08 12.8241C101.596 12.8241 99.5811 10.9941 99.5811 8.73957C99.5811 6.48501 101.596 4.655 104.08 4.655C104.783 4.64507 105.478 4.795 106.114 5.09345C106.75 5.39189 107.309 5.83103 107.75 6.37764L108.58 8.73957Z" fill="#EBEBEB"/>
<path d="M105.44 20.8396H18.8057V22.2646H105.44V20.8396Z" fill="#FAFAFA"/>
<path d="M172.645 127.523H105.447V130.544H172.645V127.523Z" fill="#E0E0E0"/>
<path d="M119.579 159.766H109.434V112.679L114.504 108.345L119.579 112.679V159.766Z" fill="#E6E6E6"/>
<path d="M134.112 159.766H123.967V112.679L129.042 108.345L134.112 112.679V159.766Z" fill="#E6E6E6"/>
<path d="M148.651 159.766H138.506V112.679L143.576 108.345L148.651 112.679V159.766Z" fill="#E6E6E6"/>
<path d="M163.183 159.766H153.037V112.679L158.112 108.345L163.183 112.679V159.766Z" fill="#E6E6E6"/>
<path d="M177.715 159.766H167.574V112.679L172.645 108.345L177.715 112.679V159.766Z" fill="#E6E6E6"/>
<path d="M72.8819 17.0869C72.8819 17.0869 71.9401 14.7835 66.1378 15.4667C60.3355 16.1499 59.7352 23.8311 56.8365 29.2918C53.9378 34.7525 50.8585 37.4023 50.8585 37.4023C50.8585 37.4023 50.4339 40.7305 56.7487 42.6093C63.0634 44.4881 75.4391 41.3503 75.4391 41.3503C75.4391 41.3503 77.0397 26.8127 74.6631 22.3768C72.2866 17.9409 72.8819 17.0869 72.8819 17.0869Z" fill="#263238"/>
<path d="M89.8445 162.302L81.9829 162.79C81.9829 162.79 78.6498 132.495 74.9801 110.437C74.9801 110.364 74.9801 110.281 74.9459 110.198C73.4429 101.194 71.8861 93.606 70.4807 90.0485C70.4807 90.0485 68.6751 118.289 68.1383 130.826C67.6015 143.363 65.0981 165.298 65.0981 165.298L57.8317 166.377C57.8317 166.377 56.6313 122.71 57.3437 114.463C58.0562 106.216 54.811 75.6672 60.4035 68.1031H80.6311C80.6311 68.1031 88.4635 111.018 89.0296 122.915C89.5957 134.813 89.8445 162.302 89.8445 162.302Z" fill="#263238"/>
<path d="M63.3909 165.395L63.2738 167.737L63.0005 173.159L58.9306 173.764L58.8379 167.913L58.8037 165.663L63.3909 165.395Z" fill="#FF8B7B"/>
<path d="M88.0977 171.333L83.5447 172.602C83.5447 172.602 83.4373 169.864 83.33 167.234C83.2616 165.541 83.1933 163.891 83.1494 163.047C83.1494 162.72 83.1201 162.52 83.1104 162.476L88.0196 161.988V163.53L88.0538 167.014L88.0977 171.333Z" fill="#FF8B7B"/>
<path d="M64.6396 171.96C64.6396 171.96 65.396 168.93 66.5916 169.081C67.7872 169.233 64.6396 171.96 64.6396 171.96Z" stroke="#8953E3" stroke-miterlimit="10"/>
<path d="M64.9814 171.959C64.9814 171.959 67.8265 169.954 68.3535 170.983C68.8806 172.013 64.9814 171.959 64.9814 171.959Z" stroke="#8953E3" stroke-miterlimit="10"/>
<path d="M89.8428 172.266C89.8428 172.266 90.4772 169.06 91.1945 169.06C91.9119 169.06 89.8428 172.266 89.8428 172.266Z" stroke="#8953E3" stroke-miterlimit="10"/>
<path d="M89.6934 173.263C89.6934 173.263 91.3623 169.978 92.2358 170.686C93.1094 171.394 89.6934 173.263 89.6934 173.263Z" stroke="#8953E3" stroke-miterlimit="10"/>
<path d="M68.1921 175.891C68.1921 175.891 59.5154 176.115 58.8859 176.037C58.2564 175.959 57.5586 175.925 57.5098 175.242C57.5098 174.91 57.8074 172.895 57.8562 172.192C57.905 171.489 57.7294 171.123 58.6126 170.899C59.4959 170.674 63.7854 170.176 64.3027 170.708C64.82 171.24 66.5866 173.265 67.8944 173.5C69.2022 173.734 70.3002 173.641 70.393 174.383C70.4857 175.125 70.515 175.837 68.1921 175.891Z" fill="#263238"/>
<path d="M93.173 175.891C93.173 175.891 84.5013 176.115 83.8669 176.037C83.2325 175.959 82.6078 175.769 82.5054 175.452C82.4029 175.134 82.7933 172.895 82.8372 172.192C82.8811 171.489 82.7103 171.123 83.5936 170.899C84.4769 170.674 88.7664 170.176 89.2837 170.708C89.801 171.24 91.5675 173.265 92.8802 173.5C94.193 173.734 95.2812 173.641 95.3739 174.383C95.4666 175.125 95.4959 175.837 93.173 175.891Z" fill="#263238"/>
<path opacity="0.3" d="M74.9466 110.192C73.4436 101.188 71.8869 93.6 70.4814 90.0425L71.4135 84.9282C71.4135 84.9282 73.8291 103.179 74.9466 110.192Z" fill="black"/>
<path opacity="0.2" d="M63.3811 165.395L63.264 167.737C62.1221 167.781 59.848 167.864 58.8281 167.913L58.7939 165.663L63.3811 165.395Z" fill="black"/>
<path opacity="0.2" d="M88.0655 167.009L83.3319 167.233C83.2636 165.54 83.1953 163.89 83.1514 163.046L88.0314 163.534L88.0655 167.009Z" fill="black"/>
<path d="M91.1863 161.984L90.4592 165.698L81.7923 166.371L80.6553 161.984H91.1863Z" fill="#8953E3"/>
<path d="M66.2668 163.193L65.5055 166.863L56.458 167.293L56.4629 163.193H66.2668Z" fill="#8953E3"/>
<path d="M93.1027 56.7665C91.1507 57.6985 85.7827 58.7185 85.7827 58.7185C85.7827 58.7185 82.2691 49.6368 81.3419 44.4737C81.051 42.628 80.1694 40.9263 78.8293 39.6241C77.4892 38.3219 75.763 37.4893 73.9097 37.2513C71.538 36.9439 61.5242 37.0464 58.0106 37.7686C54.497 38.4909 53.887 43.649 53.5747 46.7478C53.2624 49.8466 51.3055 61.3878 52.955 64.8038C54.6044 68.2198 60.3872 66.8632 60.3872 66.8632V68.1027H80.6197L80.1317 58.6355C80.1317 58.6355 82.0447 63.6619 85.0117 63.8669C87.9787 64.0718 94.7131 59.1235 94.7131 59.1235L93.1027 56.7665ZM57.4787 62.0613C57.4787 62.0613 57.7032 56.1662 58.1034 54.468L58.7134 57.6156L59.5722 62.0613H57.4787Z" fill="#8953E3"/>
<path d="M70.3447 60.7246L73.5265 56.8742L77.9917 56.191L78.6749 60.1585L75.2589 61.4078C75.2589 61.4078 73.6143 63.389 70.3301 63.0474L70.3447 60.7246Z" fill="#FF8B7B"/>
<path d="M93.1006 56.7668L94.7549 53.7314L98.7907 52.0332L100.318 56.1666L96.9753 57.4695C96.9753 57.4695 96.1018 59.3922 94.7549 59.1434L93.1006 56.7668Z" fill="#FF8B7B"/>
<path d="M70.4133 33.5529C70.3914 33.9039 70.3914 34.256 70.4133 34.607C70.4621 35.2755 70.3352 36.5004 71.6479 37.1446C70.9696 38.6086 69.3348 42.2783 68.3442 43.5227C66.8362 42.2881 63.2934 37.3056 63.2934 37.3056C63.2934 37.3056 65.7822 34.607 63.9961 29.522C63.9961 29.522 61.4878 27.6871 61.9904 26.677C62.5662 25.5009 64.201 26.1353 64.5475 26.6331C64.1815 26.0963 62.4784 20.2061 64.5475 18.0394C65.8358 16.6876 67.1242 16.673 69.5251 16.5754H69.7252C71.2624 16.5217 72.4043 16.5754 72.4043 16.5754C72.9262 17.1376 73.386 17.7544 73.7756 18.4151C74.8644 20.1927 75.5321 22.1958 75.7276 24.2711C76.1814 29.1072 75.2298 33.0259 70.4133 33.5529Z" fill="#FF8B7B"/>
<path d="M71.7414 27.5395C71.7414 27.5395 69.5552 28.2813 68.7598 26.6221" stroke="#263238" stroke-width="0.5" stroke-linecap="round" stroke-linejoin="round"/>
<path d="M69.1015 20.5629C68.7359 20.5521 68.3745 20.6443 68.0587 20.8289C67.7429 21.0136 67.4854 21.2832 67.3154 21.6072" stroke="#263238" stroke-linecap="round" stroke-linejoin="round"/>
<path d="M74.6633 20.0575C74.486 19.8636 74.2715 19.7075 74.0325 19.5985C73.7936 19.4895 73.535 19.4298 73.2725 19.4231" stroke="#263238" stroke-linecap="round" stroke-linejoin="round"/>
<path d="M72.6541 26.6422L72.2246 22.9871L74.3767 25.7491C74.3767 25.7491 74.1669 26.7007 72.6541 26.6422Z" fill="#FF5652"/>
<path d="M69.1205 23.0164C69.1449 23.3873 69.3645 23.6752 69.6085 23.6606C69.8525 23.6459 70.0233 23.3287 69.9941 22.953C69.9648 22.5772 69.7549 22.2942 69.5061 22.3137C69.2572 22.3332 69.0913 22.6602 69.1205 23.0164Z" fill="#263238"/>
<path d="M73.3754 22.4066C73.4047 22.7823 73.6194 23.0702 73.8634 23.0507C74.1074 23.0312 74.2782 22.7189 74.2489 22.3431C74.2197 21.9674 74.0049 21.6843 73.7609 21.7038C73.5169 21.7234 73.351 22.0357 73.3754 22.4066Z" fill="#263238"/>
<path d="M63.0636 23.9281C63.0636 23.9281 60.5699 20.5853 62.6293 18.4186C63.9176 17.0668 67.3824 16.1835 69.7785 16.0811C69.7248 16.6471 69.7785 21.6052 63.0636 23.9281Z" fill="#263238"/>
<path d="M73.8149 18.4296C72.2829 18.2749 70.8451 17.6177 69.7255 16.5606L69.5352 16.3605C70.4963 16.3208 71.4589 16.3896 72.4046 16.5655C72.9265 17.1277 73.3862 17.7445 73.7759 18.4052L73.8149 18.4296Z" fill="#263238"/>
<path opacity="0.2" d="M70.4272 34.6076C69.3666 34.2851 68.4257 33.655 67.7236 32.7971C68.5642 33.2166 69.4765 33.4732 70.4125 33.5535C70.3955 33.9048 70.4004 34.2569 70.4272 34.6076Z" fill="black"/>
<path opacity="0.2" d="M58.7174 57.6158L58.1074 54.4682V49.9493C58.1074 49.9493 58.8101 54.7171 58.7174 57.6158Z" fill="black"/>
<path d="M148.4 42.9972L112.828 45.0109L114.378 72.3878L149.95 70.3741L148.4 42.9972Z" fill="#8953E3"/>
<path opacity="0.3" d="M148.4 42.9972L112.828 45.0109L114.378 72.3878L149.95 70.3741L148.4 42.9972Z" fill="black"/>
<path d="M135.47 43.7302L99.8984 45.7439L101.448 73.1208L137.02 71.1071L135.47 43.7302Z" fill="#8953E3"/>
<path opacity="0.3" d="M135.47 43.7302L99.8984 45.7439L101.448 73.1208L137.02 71.1071L135.47 43.7302Z" fill="white"/>
<path opacity="0.3" d="M139.872 46.0981L132.278 46.5537L132.432 49.1157L140.025 48.6601L139.872 46.0981Z" fill="black"/>
<path opacity="0.5" d="M109.701 48.6164L102.12 49.0455L102.355 53.1869L109.936 52.7577L109.701 48.6164Z" fill="white"/>
<path opacity="0.3" d="M112.349 59.4164L100.714 60.0751L100.897 63.3053L112.532 62.6467L112.349 59.4164Z" fill="black"/>
<path d="M158.677 20.4316L156.725 22.9204C157.265 23.2979 157.887 23.5436 158.54 23.6378L158.677 20.4316Z" fill="#A02724"/>
<path d="M192.369 173.07L186.698 172.748L185.546 167.912L184.917 165.262L184.683 164.286L189.045 163.988L189.358 163.964L190.285 166.77L192.369 173.07Z" fill="#B55B52"/>
<path d="M159.762 173.862C159.87 174.248 154.497 173.56 154.497 173.56L154.307 169.046L154.16 165.562V165.371H154.204L159.66 165.913C159.66 165.913 159.66 167.377 159.66 169.041C159.67 171.178 159.699 173.653 159.762 173.862Z" fill="#B55B52"/>
<path d="M171.141 33.5182C171.141 33.5182 163.479 35.5922 164.045 34.0891C164.33 33.1794 164.445 32.2247 164.382 31.2734C164.382 30.6487 164.304 30.2047 164.304 30.2047C161.532 30.3657 159.668 28.36 158.838 25.8907C157.769 22.7236 158.16 19.1856 159.458 16.1795C159.56 15.9355 159.853 14.901 160.112 14.7741L163.118 13.3882C163.118 13.3882 166.046 15.306 167.568 16.4967C169.091 17.6875 170.316 23.2214 170.316 27.5255C170.316 31.8297 171.141 33.5182 171.141 33.5182Z" fill="#B55B52"/>
<path d="M158.448 19.5188C158.312 19.5558 158.192 19.6348 158.104 19.7444C158.017 19.854 157.966 19.9886 157.96 20.1288C157.94 20.259 157.96 20.3923 158.017 20.5108C158.075 20.6294 158.167 20.7276 158.282 20.7925L158.448 19.5188Z" fill="#263238"/>
<path d="M158.449 17.0395C158.768 17.0323 159.082 17.1189 159.352 17.2883" stroke="#263238" stroke-linecap="round" stroke-linejoin="round"/>
<path d="M161.111 24.9604C161.111 24.9604 163.337 28.4349 166.879 29.2304C170.422 30.0258 171.54 28.796 172.013 26.7904C172.423 24.8993 173.331 23.1521 174.644 21.7298C175.868 20.4659 175.132 17.0352 173.575 14.2146C173.575 14.2146 175.244 12.814 172.555 11.4672C169.866 10.1203 168.875 12.3602 166.543 11.0524C164.21 9.74452 167.324 9.3102 165.123 13.3899C162.922 17.4696 161.707 14.5025 161.38 16.3179C161.053 18.1332 159.35 21.2857 161.111 24.9604Z" fill="#263238"/>
<path d="M161.382 17.1611C161.163 17.0879 154.106 14.5357 154.038 13.3791C153.969 12.2226 159.508 14.3258 159.718 14.4088L161.148 16.6682L161.382 17.1611Z" fill="#8953E3"/>
<path d="M175.622 19.9576C175.554 20.1675 175.134 21.5583 174.954 21.5583L174.363 21.5241C173.813 21.4786 173.267 21.4151 172.724 21.3338C172.123 21.2411 171.533 21.124 170.952 20.9873H170.928C170.337 20.8458 169.757 20.6896 169.19 20.4993C167.801 20.0798 166.437 19.5795 165.106 19.0012C164.354 18.6742 163.691 18.357 163.154 18.0837C162.056 17.5372 161.402 17.1516 161.402 17.1516L161.304 16.9906L160.904 16.3611L160.05 15.0093L159.757 14.5555V14.5213C159.744 14.4801 159.744 14.4356 159.757 14.3944C159.787 13.8771 160.846 12.4424 161.036 12.1984C161.82 11.1508 162.818 10.2824 163.964 9.65107C165.535 8.78243 167.307 9.16307 168.976 9.45587C169.528 9.57051 170.066 9.74393 170.581 9.97315L170.908 10.1147L170.972 10.144C171.03 10.1781 171.094 10.2025 171.152 10.2318L171.26 10.2855C172.5 10.8662 173.628 11.6608 174.593 12.6327C176.789 15.0971 175.896 19.1622 175.622 19.9576Z" fill="#8953E3"/>
<path d="M173.233 36.1385C173.233 36.1385 172.882 33.6985 172.116 33.2105C171.35 32.7225 163.737 32.7957 162.551 33.6301C161.365 34.4646 161.575 37.1925 161.575 37.1925L173.233 36.1385Z" fill="#8953E3"/>
<path d="M159.72 21.1036C159.72 21.1036 161.018 19.4249 162.409 20.4643C163.8 21.5037 162.697 23.9681 161.062 24.6611C161.062 24.6611 158.949 25.3492 158.676 23.1971C158.403 21.045 159.72 21.1036 159.72 21.1036Z" fill="#B55B52"/>
<path d="M154.514 79.5273C154.514 79.5273 151.61 107.309 150.8 120.085C149.99 132.861 152.967 165.532 152.967 165.532H160.028C160.028 165.532 160.838 133.076 162.058 123.34C163.278 113.604 167.328 100.404 167.328 100.404C167.328 100.404 169.768 121.295 172.208 129.816C174.648 138.336 182.574 164.366 182.574 164.366L190.704 162.805C190.704 162.805 180.944 129.411 180.944 119.065C180.944 108.719 181.036 87.8331 178.606 79.5371L154.514 79.5273Z" fill="#8953E3"/>
<path opacity="0.3" d="M190.689 162.816L182.564 164.382C182.564 164.382 174.644 138.352 172.204 129.832C170.862 125.147 169.524 116.71 168.592 110.068C167.812 104.646 167.324 100.42 167.324 100.42C167.324 100.42 163.268 113.596 162.048 123.356C160.828 133.116 160.023 165.549 160.023 165.549H152.967C152.967 165.549 149.99 132.882 150.8 120.106C151.61 107.33 154.514 79.5435 154.514 79.5435H178.582C181.022 87.8395 180.924 108.75 180.924 119.071C180.924 129.393 190.689 162.816 190.689 162.816Z" fill="black"/>
<path opacity="0.3" d="M168.586 110.066C167.81 104.644 167.322 100.418 167.322 100.418L167.81 92.8347L168.586 110.066Z" fill="black"/>
<path d="M152.203 164.176H160.665L160.25 167.66H152.535L152.203 164.176Z" fill="#263238"/>
<path d="M181.544 163.668L190.694 160.266L191.851 165.215L182.92 167.66L181.544 163.668Z" fill="#263238"/>
<path opacity="0.2" d="M189.043 163.986L184.914 165.26L185.544 167.909L190.282 166.768L189.043 163.986Z" fill="black"/>
<path opacity="0.2" d="M159.658 169.063H154.29L154.144 165.579L154.178 165.393L159.634 165.935C159.634 165.935 159.648 167.38 159.658 169.063Z" fill="black"/>
<path d="M151.706 175.595C151.741 175.688 148.329 173.701 149.266 172.774C150.203 171.847 151.706 175.595 151.706 175.595Z" stroke="#8953E3" stroke-miterlimit="10"/>
<path d="M152.197 175.455C152.172 175.552 150.294 172.083 151.572 171.775C152.851 171.468 152.197 175.455 152.197 175.455Z" stroke="#8953E3" stroke-miterlimit="10"/>
<path d="M185.911 173.487C185.911 173.487 184.794 169.891 183.71 170.481C182.627 171.072 185.911 173.487 185.911 173.487Z" stroke="#8953E3" stroke-miterlimit="10"/>
<path d="M185.609 173.8C185.609 173.8 183.086 171.014 182.349 171.99C181.613 172.966 185.609 173.8 185.609 173.8Z" stroke="#8953E3" stroke-miterlimit="10"/>
<path d="M192.578 172.736H186.517C186.517 172.736 183.013 174.844 181.476 175.039C179.939 175.234 179.036 175.327 179.08 176.43C179.124 177.533 180.056 177.63 183.203 177.582C186.351 177.533 192.597 177.918 193.276 177.294C193.954 176.669 193.524 175.493 192.578 172.736Z" fill="#263238"/>
<path d="M159.76 173.489L153.904 173.533C153.904 173.533 150.4 175.641 148.868 175.836C147.336 176.031 146.428 176.124 146.467 177.227C146.506 178.33 147.443 178.427 150.596 178.379C153.748 178.33 159.306 178.784 159.985 178.159C160.663 177.534 160.287 176.51 159.76 173.489Z" fill="#263238"/>
<path opacity="0.3" d="M159.718 14.4109C159.869 15.1868 160.025 15.7822 161.309 17.1339C159.679 16.5288 154.096 14.3718 154.038 13.3812C153.979 12.3906 158.313 13.879 159.718 14.4109Z" fill="black"/>
<path opacity="0.3" d="M159.715 14.5307C159.702 14.4895 159.702 14.445 159.715 14.4038C159.715 14.4038 159.715 14.4575 159.715 14.56V14.5307Z" fill="black"/>
<path opacity="0.3" d="M161.381 17.1623L161.229 17.1037C161.237 17.0833 161.247 17.0637 161.259 17.0452L161.381 17.1623Z" fill="black"/>
<path d="M175.622 19.9576C175.554 20.1675 175.134 21.5583 174.954 21.5583L174.363 21.5241C173.813 21.4786 173.267 21.4151 172.724 21.3338C172.123 21.2411 171.533 21.124 170.952 20.9873H170.928C170.337 20.8458 169.757 20.6896 169.19 20.4993C167.801 20.0798 166.437 19.5795 165.106 19.0012C164.354 18.6742 163.691 18.357 163.154 18.0837C162.056 17.5372 161.402 17.1516 161.402 17.1516L161.304 16.9906L160.904 16.3611L160.05 15.0093L159.757 14.5555V14.5213C159.744 14.4801 159.744 14.4356 159.757 14.3944C159.787 13.8771 160.846 12.4424 161.036 12.1984C161.82 11.1508 162.818 10.2824 163.964 9.65107C165.535 8.78243 167.307 9.16307 168.976 9.45587C169.528 9.57051 170.066 9.74393 170.581 9.97315L170.908 10.1147L170.972 10.144C171.03 10.1781 171.094 10.2025 171.152 10.2318L171.26 10.2855C172.5 10.8662 173.628 11.6608 174.593 12.6327C176.789 15.0971 175.896 19.1622 175.622 19.9576Z" fill="#8953E3"/>
<path opacity="0.2" d="M166.02 29.7366C165.501 30.2771 164.954 30.7902 164.381 31.2738C164.381 30.6491 164.303 30.2051 164.303 30.2051C164.891 30.1154 165.468 29.9582 166.02 29.7366Z" fill="black"/>
<path d="M154.514 79.8003V54.805L149.951 52.9457C149.951 52.9457 150.825 39.6087 157.32 37.5054C163.815 35.4021 175.376 34.5188 178.558 37.5054C180.568 39.4037 180.837 42.4488 180.91 45.0596C181.066 50.3788 179.675 55.5809 179.368 60.8708C179.124 65.175 178.977 69.4791 178.88 73.7882C178.88 74.12 178.753 79.8003 178.743 79.8003H154.514Z" fill="#263238"/>
<path d="M157.011 55.6598C157.011 55.6598 153.634 66.8155 150.296 67.5134C146.958 68.2112 135.558 61.9892 135.558 61.9892H130.468L129.746 57.5142C129.746 57.5142 134.485 55.7574 137.642 57.8607C137.642 57.8607 145.016 61.0766 147.47 62.0136L151.028 53.4053L157.011 55.6598Z" fill="#B55B52"/>
</svg>
