<svg width="258" height="193" viewBox="0 0 258 193" fill="none" xmlns="http://www.w3.org/2000/svg">
<path d="M258 168.939H0V169.068H258V168.939Z" fill="#E0E0E0"/>
<path d="M202.88 172.861H194.181V172.99H202.88V172.861Z" fill="#E0E0E0"/>
<path d="M231.457 172.798H208.464V172.927H231.457V172.798Z" fill="#E0E0E0"/>
<path d="M165.496 173.665H136.873V173.794H165.496V173.665Z" fill="#E0E0E0"/>
<path d="M133.902 173.665H123.211V173.794H133.902V173.665Z" fill="#E0E0E0"/>
<path d="M78.2054 172.67H73.5098V172.799H78.2054V172.67Z" fill="#E0E0E0"/>
<path d="M88.829 172.67H81.0684V172.799H88.829V172.67Z" fill="#E0E0E0"/>
<path d="M68.8606 174.996H34.5156V175.125H68.8606V174.996Z" fill="#E0E0E0"/>
<path d="M122.29 145.925H22.656C21.8755 145.923 21.1274 145.612 20.576 145.06C20.0246 144.508 19.7148 143.759 19.7148 142.978V2.92056C19.7216 2.14451 20.0343 1.40248 20.585 0.855641C21.1357 0.308804 21.88 0.00132942 22.656 0H122.29C123.072 0 123.821 0.310419 124.374 0.862969C124.926 1.41552 125.237 2.16494 125.237 2.94636V142.978C125.237 143.76 124.926 144.509 124.374 145.062C123.821 145.614 123.072 145.925 122.29 145.925ZM22.656 0.1032C21.9097 0.104567 21.1944 0.401998 20.6672 0.930207C20.14 1.45842 19.8438 2.17424 19.8438 2.92056V142.978C19.8438 143.725 20.14 144.441 20.6672 144.969C21.1944 145.497 21.9097 145.794 22.656 145.796H122.29C123.037 145.794 123.753 145.497 124.281 144.969C124.809 144.441 125.106 143.725 125.108 142.978V2.92056C125.106 2.17377 124.809 1.45795 124.281 0.929892C123.753 0.40183 123.037 0.104564 122.29 0.1032H22.656Z" fill="#E0E0E0"/>
<path d="M233.908 145.925H134.269C133.488 145.923 132.739 145.613 132.187 145.06C131.634 144.508 131.324 143.759 131.322 142.978V2.92056C131.33 2.14404 131.644 1.40201 132.196 0.855318C132.747 0.308624 133.492 0.00131492 134.269 0H233.908C234.683 0.00268552 235.426 0.310761 235.976 0.857452C236.525 1.40414 236.837 2.1454 236.844 2.92056V142.978C236.844 143.758 236.535 144.506 235.985 145.058C235.435 145.61 234.688 145.922 233.908 145.925ZM134.269 0.1032C133.522 0.104564 132.806 0.40183 132.278 0.929892C131.75 1.45795 131.453 2.17377 131.451 2.92056V142.978C131.453 143.725 131.75 144.441 132.278 144.969C132.806 145.497 133.522 145.794 134.269 145.796H233.908C234.655 145.794 235.371 145.497 235.899 144.969C236.427 144.441 236.724 143.725 236.726 142.978V2.92056C236.724 2.17377 236.427 1.45795 235.899 0.929892C235.371 0.40183 234.655 0.104564 233.908 0.1032H134.269Z" fill="#E0E0E0"/>
<path d="M163.98 106.06H139.542V168.939H163.98V106.06Z" fill="#E0E0E0"/>
<path d="M159.337 168.939H163.981V155.734H154.471L159.337 168.939Z" fill="#F0F0F0"/>
<path d="M72.6467 106.06H48.209V168.939H72.6467V106.06Z" fill="#E0E0E0"/>
<path d="M163.974 106.06H68.5967V160.838H163.974V106.06Z" fill="#F0F0F0"/>
<path d="M117.845 110.038V144.331H160.379V110.038H117.845Z" fill="#E0E0E0"/>
<path d="M72.1992 110.042V144.335H114.733V110.042H72.1992Z" fill="#E0E0E0"/>
<path d="M160.379 155.734V153.211H117.845V155.734H160.379Z" fill="#E0E0E0"/>
<path d="M114.733 155.734V153.211H72.1995V155.734H114.733Z" fill="#E0E0E0"/>
<path d="M160.372 150.858V148.335H117.838V150.858H160.372Z" fill="#E0E0E0"/>
<path d="M114.727 150.863V148.339H72.1927V150.863H114.727Z" fill="#E0E0E0"/>
<path d="M97.6729 113.732H89.2672C87.4586 113.733 85.669 113.364 84.0074 112.65C82.3458 111.936 80.847 110.891 79.6025 109.579H107.327C106.084 110.89 104.587 111.935 102.927 112.649C101.268 113.363 99.4798 113.732 97.6729 113.732Z" fill="#F0F0F0"/>
<path d="M143.747 113.732H135.337C133.528 113.733 131.738 113.365 130.076 112.651C128.415 111.937 126.916 110.891 125.672 109.579H153.412C152.168 110.891 150.669 111.937 149.008 112.651C147.346 113.365 145.556 113.733 143.747 113.732Z" fill="#F0F0F0"/>
<path d="M73.2407 168.939H68.5967V155.734H78.1066L73.2407 168.939Z" fill="#F0F0F0"/>
<path d="M163.454 9.79883H35.2695V83.0192H163.454V9.79883Z" fill="#E0E0E0"/>
<path d="M170.542 7.53955H30.9591C30.7852 7.53955 30.6186 7.60859 30.4957 7.73149C30.3728 7.85438 30.3037 8.02107 30.3037 8.19487C30.3031 8.28136 30.3195 8.36713 30.3521 8.44724C30.3848 8.52734 30.4329 8.60019 30.4938 8.66159C30.5548 8.72299 30.6272 8.77172 30.7071 8.80498C30.7869 8.83823 30.8726 8.85536 30.9591 8.85535H170.542C170.629 8.85536 170.714 8.83823 170.794 8.80498C170.874 8.77172 170.947 8.72299 171.007 8.66159C171.068 8.60019 171.117 8.52734 171.149 8.44724C171.182 8.36713 171.198 8.28136 171.198 8.19487C171.198 8.02107 171.128 7.85438 171.006 7.73149C170.883 7.60859 170.716 7.53955 170.542 7.53955Z" fill="#E0E0E0"/>
<path d="M166.26 9.79883H36.5791V83.0192H166.26V9.79883Z" fill="#E6E6E6"/>
<path d="M163.454 83.0186H35.2695V88.2353H163.454V83.0186Z" fill="#E0E0E0"/>
<path d="M170.936 83.0186H41.2549V88.2353H170.936V83.0186Z" fill="#E6E6E6"/>
<path d="M162.323 79.088V13.7314L40.506 13.7314V79.088L162.323 79.088Z" fill="#F5F5F5"/>
<path d="M100.796 79.088L123.866 13.7314H134.754L111.684 79.088H100.796Z" fill="#FAFAFA"/>
<path d="M114.025 79.088L137.096 13.7314H141.337L118.272 79.088H114.025Z" fill="#FAFAFA"/>
<path d="M162.323 79.088V13.7314H161.823V79.088H162.323Z" fill="#E0E0E0"/>
<path d="M40.5519 6.36182H33.7871V69.4273H40.5519V6.36182Z" fill="#EBEBEB"/>
<path d="M43.1893 6.36182H37.9209V69.4273H43.1893V6.36182Z" fill="#E0E0E0"/>
<path d="M47.3165 6.36182H40.5518V69.4273H47.3165V6.36182Z" fill="#EBEBEB"/>
<path d="M49.9539 6.36182H44.6855V69.4273H49.9539V6.36182Z" fill="#E0E0E0"/>
<path d="M54.0812 6.36182H47.3164V69.4273H54.0812V6.36182Z" fill="#EBEBEB"/>
<path d="M159.804 6.36182H155.908V69.4273H159.804V6.36182Z" fill="#EBEBEB"/>
<path d="M161.333 6.36182H158.294V69.4273H161.333V6.36182Z" fill="#E0E0E0"/>
<path d="M163.705 6.36182H159.81V69.4273H163.705V6.36182Z" fill="#EBEBEB"/>
<path d="M165.228 6.36182H162.188V69.4273H165.228V6.36182Z" fill="#E0E0E0"/>
<path d="M167.603 6.36182H163.707V69.4273H167.603V6.36182Z" fill="#EBEBEB"/>
<path d="M203.061 33.7197H194.413V57.3164H203.061V33.7197Z" fill="#E6E6E6"/>
<path d="M191.126 61.2539L189.124 66.708H191.126L203.371 61.2539H191.126Z" fill="#F0F0F0"/>
<path d="M189.124 61.2539V66.708L201.374 61.2539H189.124Z" fill="#E0E0E0"/>
<path d="M212.07 61.2539L210.068 66.708H212.07L224.315 61.2539H212.07Z" fill="#F0F0F0"/>
<path d="M210.068 61.2539V66.708L222.318 61.2539H210.068Z" fill="#E0E0E0"/>
<path d="M180.14 61.5081H193.458V57.3543H180.14V61.5081Z" fill="#E0E0E0"/>
<path d="M231.458 57.3529H193.454V61.5067H231.458V57.3529Z" fill="#F0F0F0"/>
<path d="M217.468 57.3162H196.42L193.814 28.7246H214.862L217.468 57.3162Z" fill="#E0E0E0"/>
<path d="M218.557 57.3162H197.51L194.909 28.7246H215.957L218.557 57.3162Z" fill="#F0F0F0"/>
<path d="M200.388 54.1543L198.36 31.8889H213.077L215.105 54.1543H200.388Z" fill="#FAFAFA"/>
<path d="M81.2241 96.8784C81.2241 96.8784 72.1476 81.2384 84.738 68.7874C84.738 68.7874 88.025 70.9288 87.9734 73.808C87.9218 76.6873 84.4542 77.42 85.2024 79.8143C85.9506 82.2085 89.2221 84.577 87.0704 86.5636C84.9186 88.5502 87.4161 90.3149 87.2716 92.7556C87.1271 95.1962 81.2241 96.8784 81.2241 96.8784Z" fill="#E0E0E0"/>
<path d="M81.9094 98.3079C81.9094 98.3079 85.5885 80.604 69.7163 72.7556C69.7163 72.7556 67.2756 75.8258 68.2302 78.54C69.1848 81.2541 72.704 80.8568 72.7556 83.3697C72.8072 85.8827 70.4439 89.1541 73.1064 90.3615C75.769 91.569 73.963 94.0355 74.8712 96.2955C75.7793 98.5556 81.9094 98.3079 81.9094 98.3079Z" fill="#E0E0E0"/>
<path d="M68.0088 94.3857C68.0088 94.3857 68.3081 106.058 79.8768 106.058C91.4455 106.058 91.7448 94.3857 91.7448 94.3857H68.0088Z" fill="#F0F0F0"/>
<path d="M204.517 168.939H205.698L209.063 152.345L209.656 149.44L213.325 131.38H227.406L235.038 168.939H236.22L228.444 130.662C228.416 130.532 228.345 130.415 228.241 130.332C228.138 130.248 228.009 130.203 227.876 130.203H212.855C212.723 130.202 212.594 130.247 212.491 130.331C212.388 130.415 212.318 130.532 212.293 130.662L209.068 146.545L208.464 149.45L204.517 168.939Z" fill="#EBEBEB"/>
<path d="M181.91 168.939H183.092L190.723 131.359H204.805L208.464 149.45L209.052 152.345L212.421 168.939H213.624L209.666 149.439L209.067 146.545L205.842 130.662C205.815 130.532 205.744 130.415 205.64 130.332C205.537 130.248 205.408 130.203 205.275 130.203H190.254C190.121 130.203 189.992 130.248 189.888 130.332C189.785 130.415 189.714 130.532 189.686 130.662L181.91 168.939Z" fill="#EBEBEB"/>
<path d="M216.622 130.781H190.75C188.375 130.78 186.096 129.849 184.4 128.187C182.704 126.524 181.727 124.264 181.679 121.89L180.714 82.5605C180.701 81.6856 180.862 80.8168 181.187 80.0045C181.512 79.1922 181.996 78.4526 182.609 77.8286C183.223 77.2046 183.954 76.7086 184.76 76.3694C185.567 76.0302 186.433 75.8545 187.308 75.8525H203.526C205.15 75.8522 206.717 76.4496 207.928 77.5307C209.14 78.6118 209.911 80.101 210.095 81.7143L216.622 130.781Z" fill="#E6E6E6"/>
<path d="M202.51 125.821H227.83C228.77 125.821 229.672 126.195 230.337 126.859C231.001 127.524 231.375 128.426 231.375 129.366V129.49C231.375 129.832 231.239 130.16 230.997 130.402C230.755 130.644 230.427 130.78 230.085 130.78H202.51V125.821Z" fill="#E6E6E6"/>
<path d="M129 192.24C184.255 192.24 229.048 189.625 229.048 186.399C229.048 183.173 184.255 180.558 129 180.558C73.7458 180.558 28.9531 183.173 28.9531 186.399C28.9531 189.625 73.7458 192.24 129 192.24Z" fill="#F5F5F5"/>
<path d="M96.2599 37.8144C96.2619 36.8533 96.1842 35.8937 96.0277 34.9455C95.3361 30.7542 93.1893 26.9409 89.9645 24.1758C86.7398 21.4107 82.6436 19.8707 78.3959 19.8267H78.2411C75.3914 19.8284 72.583 20.5077 70.0475 21.8087C67.5121 23.1096 65.3223 24.9948 63.659 27.3087C63.3855 27.6853 63.143 28.0723 62.8953 28.4593C62.8751 28.4849 62.8578 28.5126 62.8437 28.5419C61.1498 31.3434 60.2574 34.5561 60.2637 37.8299V37.866C60.2743 41.6709 61.4905 45.3746 63.7377 48.4451C65.9848 51.5156 69.1472 53.7949 72.7707 54.9558C76.3943 56.1166 80.2925 56.0992 83.9055 54.9061C87.5185 53.7129 90.6604 51.4055 92.8801 48.315C93.1484 47.9383 93.3961 47.5565 93.6386 47.1643C93.6588 47.1388 93.6761 47.1111 93.6902 47.0818C95.382 44.2874 96.2711 41.081 96.2599 37.8144ZM61.0325 37.4068C61.0922 34.4606 61.9154 31.5803 63.4216 29.0476H69.0512C68.1909 31.7516 67.7404 34.5693 67.7147 37.4068H61.0325ZM69.8407 29.0476H77.8696V37.4068H68.4887C68.5058 34.5674 68.9619 31.7476 69.8407 29.0476ZM78.6436 28.2736V20.5749C79.7596 20.676 80.8284 21.0733 81.7396 21.7255C83.654 23.0362 85.2587 25.3375 86.3836 28.2736H78.6436ZM86.6623 29.0476C87.3006 30.9806 87.7161 32.9801 87.9007 35.0074C87.9781 35.8123 88.0142 36.6121 88.0245 37.4068H78.6436V29.0476H86.6623ZM76.7344 20.7916C77.1048 20.6863 77.4854 20.6206 77.8696 20.5955V28.2891H70.1296C71.5744 24.3984 73.9171 21.5707 76.7344 20.7761V20.7916ZM77.8696 38.1963V46.5555H69.8561C69.2177 44.6177 68.8056 42.6126 68.6281 40.5802C68.5558 39.7752 68.5145 38.9754 68.5042 38.1808L77.8696 38.1963ZM77.8696 47.3295V55.0282C76.7538 54.9263 75.6852 54.5291 74.7736 53.8775C72.8644 52.5669 71.2597 50.2655 70.1296 47.3295H77.8696ZM79.7788 54.8269C79.4085 54.9327 79.0279 54.9984 78.6436 55.023V47.314H86.3836C84.9388 51.1891 82.5962 54.022 79.7788 54.8115V54.8269ZM78.6436 46.5709V38.1859H88.0245C88.0099 41.0256 87.5538 43.8457 86.6726 46.5451L78.6436 46.5709ZM88.7985 38.1859H95.5065C95.444 41.1317 94.6211 44.0113 93.1174 46.5451H87.4621C88.3223 43.8411 88.7728 41.0234 88.7985 38.1859ZM95.5065 37.4119H88.7985C88.7985 36.5967 88.7469 35.7711 88.6695 34.9403C88.4934 32.9403 88.0971 30.9658 87.4879 29.0527H93.1071C94.193 30.8965 94.9262 32.9263 95.2691 35.0383C95.392 35.8224 95.4644 36.6135 95.4859 37.4068L95.5065 37.4119ZM88.3496 23.8257C90.0361 25.0405 91.4903 26.5489 92.6427 28.2787H87.2041C86.0482 25.0847 84.3093 22.5563 82.1782 21.0909L82.0131 20.9825C84.2885 21.492 86.437 22.4575 88.3289 23.8205L88.3496 23.8257ZM74.4847 20.9928C72.3123 22.4221 70.5269 25.0228 69.3247 28.2787H63.9067L64.2833 27.7266C66.7338 24.3059 70.3578 21.907 74.464 20.9877L74.4847 20.9928ZM61.0687 38.1859H67.7509C67.7509 39.0012 67.8025 39.8268 67.8799 40.6576C68.0585 42.6572 68.4547 44.6314 69.0615 46.5451H63.4113C62.3232 44.7024 61.5899 42.6722 61.2493 40.5595C61.1208 39.7745 61.0484 38.9813 61.0325 38.1859H61.0687ZM63.9273 47.3191H69.3247C70.4805 50.5132 72.2194 53.0416 74.3505 54.507L74.5208 54.6154C70.1851 53.6307 66.393 51.0189 63.9273 47.3191ZM82.0441 54.5999C84.2113 53.1757 85.9966 50.5699 87.2041 47.314H92.6117C92.4879 47.4997 92.3641 47.6855 92.2351 47.8661C89.7826 51.2884 86.154 53.686 82.0441 54.5999Z" fill="#8953E3"/>
<path opacity="0.8" d="M96.2599 37.8144C96.2619 36.8533 96.1842 35.8937 96.0277 34.9455C95.3361 30.7542 93.1893 26.9409 89.9645 24.1758C86.7398 21.4107 82.6436 19.8707 78.3959 19.8267H78.2411C75.3914 19.8284 72.583 20.5077 70.0475 21.8087C67.5121 23.1096 65.3223 24.9948 63.659 27.3087C63.3855 27.6853 63.143 28.0723 62.8953 28.4593C62.8751 28.4849 62.8578 28.5126 62.8437 28.5419C61.1498 31.3434 60.2574 34.5561 60.2637 37.8299V37.866C60.2743 41.6709 61.4905 45.3746 63.7377 48.4451C65.9848 51.5156 69.1472 53.7949 72.7707 54.9558C76.3943 56.1166 80.2925 56.0992 83.9055 54.9061C87.5185 53.7129 90.6604 51.4055 92.8801 48.315C93.1484 47.9383 93.3961 47.5565 93.6386 47.1643C93.6588 47.1388 93.6761 47.1111 93.6902 47.0818C95.382 44.2874 96.2711 41.081 96.2599 37.8144ZM61.0325 37.4068C61.0922 34.4606 61.9154 31.5803 63.4216 29.0476H69.0512C68.1909 31.7516 67.7404 34.5693 67.7147 37.4068H61.0325ZM69.8407 29.0476H77.8696V37.4068H68.4887C68.5058 34.5674 68.9619 31.7476 69.8407 29.0476ZM78.6436 28.2736V20.5749C79.7596 20.676 80.8284 21.0733 81.7396 21.7255C83.654 23.0362 85.2587 25.3375 86.3836 28.2736H78.6436ZM86.6623 29.0476C87.3006 30.9806 87.7161 32.9801 87.9007 35.0074C87.9781 35.8123 88.0142 36.6121 88.0245 37.4068H78.6436V29.0476H86.6623ZM76.7344 20.7916C77.1048 20.6863 77.4854 20.6206 77.8696 20.5955V28.2891H70.1296C71.5744 24.3984 73.9171 21.5707 76.7344 20.7761V20.7916ZM77.8696 38.1963V46.5555H69.8561C69.2177 44.6177 68.8056 42.6126 68.6281 40.5802C68.5558 39.7752 68.5145 38.9754 68.5042 38.1808L77.8696 38.1963ZM77.8696 47.3295V55.0282C76.7538 54.9263 75.6852 54.5291 74.7736 53.8775C72.8644 52.5669 71.2597 50.2655 70.1296 47.3295H77.8696ZM79.7788 54.8269C79.4085 54.9327 79.0279 54.9984 78.6436 55.023V47.314H86.3836C84.9388 51.1891 82.5962 54.022 79.7788 54.8115V54.8269ZM78.6436 46.5709V38.1859H88.0245C88.0099 41.0256 87.5538 43.8457 86.6726 46.5451L78.6436 46.5709ZM88.7985 38.1859H95.5065C95.444 41.1317 94.6211 44.0113 93.1174 46.5451H87.4621C88.3223 43.8411 88.7728 41.0234 88.7985 38.1859ZM95.5065 37.4119H88.7985C88.7985 36.5967 88.7469 35.7711 88.6695 34.9403C88.4934 32.9403 88.0971 30.9658 87.4879 29.0527H93.1071C94.193 30.8965 94.9262 32.9263 95.2691 35.0383C95.392 35.8224 95.4644 36.6135 95.4859 37.4068L95.5065 37.4119ZM88.3496 23.8257C90.0361 25.0405 91.4903 26.5489 92.6427 28.2787H87.2041C86.0482 25.0847 84.3093 22.5563 82.1782 21.0909L82.0131 20.9825C84.2885 21.492 86.437 22.4575 88.3289 23.8205L88.3496 23.8257ZM74.4847 20.9928C72.3123 22.4221 70.5269 25.0228 69.3247 28.2787H63.9067L64.2833 27.7266C66.7338 24.3059 70.3578 21.907 74.464 20.9877L74.4847 20.9928ZM61.0687 38.1859H67.7509C67.7509 39.0012 67.8025 39.8268 67.8799 40.6576C68.0585 42.6572 68.4547 44.6314 69.0615 46.5451H63.4113C62.3232 44.7024 61.5899 42.6722 61.2493 40.5595C61.1208 39.7745 61.0484 38.9813 61.0325 38.1859H61.0687ZM63.9273 47.3191H69.3247C70.4805 50.5132 72.2194 53.0416 74.3505 54.507L74.5208 54.6154C70.1851 53.6307 66.393 51.0189 63.9273 47.3191ZM82.0441 54.5999C84.2113 53.1757 85.9966 50.5699 87.2041 47.314H92.6117C92.4879 47.4997 92.3641 47.6855 92.2351 47.8661C89.7826 51.2884 86.154 53.686 82.0441 54.5999Z" fill="#FAFAFA"/>
<path d="M213.774 46.3888H51.5439V85.6977H213.774V46.3888Z" fill="#8953E3"/>
<path opacity="0.6" d="M213.774 46.3888H51.5439V85.6977H213.774V46.3888Z" fill="#FAFAFA"/>
<path d="M210.115 50.0483H47.8848V89.3572H210.115V50.0483Z" fill="#8953E3"/>
<path opacity="0.3" d="M210.115 50.0483H47.8848V89.3572H210.115V50.0483Z" fill="black"/>
<path d="M206.458 53.7059H44.2275V93.0148H206.458V53.7059Z" fill="#8953E3"/>
<path opacity="0.1" d="M206.458 53.7059H44.2275V93.0148H206.458V53.7059Z" fill="#FAFAFA"/>
<path d="M198.717 85.276V61.4471L51.9664 61.4471V85.276L198.717 85.276Z" fill="#8953E3"/>
<path opacity="0.9" d="M198.717 85.276V61.4471L51.9664 61.4471V85.276L198.717 85.276Z" fill="#FAFAFA"/>
<path d="M174.031 61.4468V85.2756H174.893V61.4468H174.031Z" fill="#8953E3"/>
<path opacity="0.6" d="M174.031 61.4468V85.2756H174.893V61.4468H174.031Z" fill="#FAFAFA"/>
<path d="M55.626 64.7326V81.9877H56.4877V64.7326H55.626Z" fill="#8953E3"/>
<path opacity="0.6" d="M55.626 64.7326V81.9877H56.4877V64.7326H55.626Z" fill="#FAFAFA"/>
<path d="M185.982 76.3699C185.356 76.3697 184.74 76.215 184.188 75.9197C183.636 75.6244 183.165 75.1974 182.817 74.6768C182.469 74.1561 182.255 73.5577 182.194 72.9345C182.133 72.3114 182.226 71.6828 182.466 71.1044C182.705 70.5259 183.084 70.0155 183.568 69.6182C184.052 69.221 184.626 68.9493 185.241 68.827C185.855 68.7048 186.489 68.7359 187.089 68.9175C187.688 69.0992 188.233 69.4257 188.676 69.8683C189.209 70.4009 189.572 71.0796 189.719 71.8185C189.866 72.5574 189.79 73.3233 189.502 74.0194C189.214 74.7154 188.725 75.3103 188.099 75.7287C187.472 76.1471 186.736 76.3703 185.982 76.3699ZM185.982 69.7909C185.34 69.7911 184.717 70.0141 184.221 70.4219C183.725 70.8296 183.385 71.3969 183.26 72.0271C183.135 72.6572 183.232 73.3112 183.536 73.8775C183.839 74.4438 184.329 74.8874 184.923 75.1327C185.517 75.378 186.177 75.4098 186.792 75.2227C187.406 75.0356 187.937 74.6411 188.293 74.1065C188.649 73.572 188.809 72.9304 188.745 72.2912C188.682 71.6519 188.398 71.0546 187.943 70.6011C187.688 70.3383 187.384 70.129 187.047 69.9854C186.71 69.8419 186.348 69.767 185.982 69.7651V69.7909Z" fill="#8953E3"/>
<path d="M190.919 77.9883C190.851 77.9881 190.783 77.9742 190.72 77.9477C190.658 77.9211 190.601 77.8823 190.553 77.8335L187.947 75.2277C187.893 75.1815 187.849 75.1246 187.818 75.0605C187.787 74.9965 187.77 74.9268 187.767 74.8557C187.764 74.7847 187.776 74.7138 187.802 74.6476C187.828 74.5814 187.867 74.5212 187.918 74.471C187.968 74.4207 188.028 74.3813 188.094 74.3554C188.161 74.3294 188.231 74.3175 188.303 74.3202C188.374 74.323 188.443 74.3404 188.507 74.3713C188.571 74.4023 188.628 74.4462 188.675 74.5002L191.28 77.106C191.376 77.2027 191.43 77.3334 191.43 77.4698C191.43 77.6061 191.376 77.7369 191.28 77.8335C191.185 77.9308 191.055 77.9864 190.919 77.9883Z" fill="#8953E3"/>
<g opacity="0.6">
<path opacity="0.6" d="M185.982 76.3699C185.356 76.3697 184.74 76.215 184.188 75.9197C183.636 75.6244 183.165 75.1974 182.817 74.6768C182.469 74.1561 182.255 73.5577 182.194 72.9345C182.133 72.3114 182.226 71.6828 182.466 71.1044C182.705 70.5259 183.084 70.0155 183.568 69.6182C184.052 69.221 184.626 68.9493 185.241 68.827C185.855 68.7048 186.489 68.7359 187.089 68.9175C187.688 69.0992 188.233 69.4257 188.676 69.8683C189.209 70.4009 189.572 71.0796 189.719 71.8185C189.866 72.5574 189.79 73.3233 189.502 74.0194C189.214 74.7154 188.725 75.3103 188.099 75.7287C187.472 76.1471 186.736 76.3703 185.982 76.3699ZM185.982 69.7909C185.34 69.7911 184.717 70.0141 184.221 70.4219C183.725 70.8296 183.385 71.3969 183.26 72.0271C183.135 72.6572 183.232 73.3112 183.536 73.8775C183.839 74.4438 184.329 74.8874 184.923 75.1327C185.517 75.378 186.177 75.4098 186.792 75.2227C187.406 75.0356 187.937 74.6411 188.293 74.1065C188.649 73.572 188.809 72.9304 188.745 72.2912C188.682 71.6519 188.398 71.0546 187.943 70.6011C187.688 70.3383 187.384 70.129 187.047 69.9854C186.71 69.8419 186.348 69.767 185.982 69.7651V69.7909Z" fill="#FAFAFA"/>
<path opacity="0.6" d="M190.92 77.9903C190.852 77.99 190.784 77.9762 190.721 77.9496C190.659 77.923 190.602 77.8843 190.554 77.8355L187.948 75.2297C187.894 75.1834 187.85 75.1265 187.819 75.0625C187.788 74.9985 187.771 74.9288 187.768 74.8577C187.765 74.7866 187.777 74.7158 187.803 74.6496C187.829 74.5833 187.868 74.5232 187.919 74.4729C187.969 74.4226 188.029 74.3833 188.095 74.3573C188.162 74.3314 188.232 74.3194 188.303 74.3222C188.375 74.3249 188.444 74.3423 188.508 74.3733C188.572 74.4043 188.629 74.4481 188.675 74.5021L191.281 77.1079C191.377 77.2046 191.431 77.3354 191.431 77.4717C191.431 77.608 191.377 77.7388 191.281 77.8355C191.186 77.9327 191.056 77.9884 190.92 77.9903Z" fill="#FAFAFA"/>
</g>
<path d="M150.977 22.6274H134.754V23.0299H150.977V22.6274Z" fill="#8953E3"/>
<path d="M150.977 24.3367H134.754V24.7391H150.977V24.3367Z" fill="#8953E3"/>
<path d="M150.977 26.0479H134.754V26.4503H150.977V26.0479Z" fill="#8953E3"/>
<path d="M150.977 27.7568H134.754V28.1593H150.977V27.7568Z" fill="#8953E3"/>
<path d="M150.977 29.4639H134.754V29.8663H150.977V29.4639Z" fill="#8953E3"/>
<path d="M145.332 31.177H134.754V31.5795H145.332V31.177Z" fill="#8953E3"/>
<g opacity="0.5">
<path opacity="0.5" d="M150.977 22.6274H134.754V23.0299H150.977V22.6274Z" fill="#FAFAFA"/>
<path opacity="0.5" d="M150.976 24.335H134.753V24.7374H150.976V24.335Z" fill="#FAFAFA"/>
<path opacity="0.5" d="M150.976 26.0481H134.753V26.4506H150.976V26.0481Z" fill="#FAFAFA"/>
<path opacity="0.5" d="M150.976 27.7573H134.753V28.1598H150.976V27.7573Z" fill="#FAFAFA"/>
<path opacity="0.5" d="M150.976 29.4644H134.753V29.8668H150.976V29.4644Z" fill="#FAFAFA"/>
<path opacity="0.5" d="M145.331 31.1775H134.753V31.58H145.331V31.1775Z" fill="#FAFAFA"/>
</g>
<path d="M53.329 96.4099H36.043V96.6679H53.329V96.4099Z" fill="#8953E3"/>
<path d="M53.329 97.5038H36.043V97.7618H53.329V97.5038Z" fill="#8953E3"/>
<path d="M53.329 98.5977H36.043V98.8557H53.329V98.5977Z" fill="#8953E3"/>
<path d="M53.329 99.6915H36.043V99.9495H53.329V99.6915Z" fill="#8953E3"/>
<path d="M53.329 100.785H36.043V101.043H53.329V100.785Z" fill="#8953E3"/>
<path d="M46.9099 101.886H36.043V102.144H46.9099V101.886Z" fill="#8953E3"/>
<g opacity="0.4">
<path opacity="0.4" d="M53.329 96.4099H36.043V96.6679H53.329V96.4099Z" fill="#FAFAFA"/>
<path opacity="0.4" d="M53.3299 97.5034H36.0439V97.7614H53.3299V97.5034Z" fill="#FAFAFA"/>
<path opacity="0.4" d="M53.3299 98.5974H36.0439V98.8554H53.3299V98.5974Z" fill="#FAFAFA"/>
<path opacity="0.4" d="M53.3299 99.6913H36.0439V99.9493H53.3299V99.6913Z" fill="#FAFAFA"/>
<path opacity="0.4" d="M53.3299 100.785H36.0439V101.043H53.3299V100.785Z" fill="#FAFAFA"/>
<path opacity="0.4" d="M46.9109 101.883H36.0439V102.141H46.9109V101.883Z" fill="#FAFAFA"/>
</g>
<path d="M110.141 25.1616C109.276 25.1616 108.447 25.5052 107.835 26.1168C107.223 26.7284 106.88 27.5578 106.88 28.4227V39.1813C106.88 40.0462 107.223 40.8757 107.835 41.4873C108.447 42.0989 109.276 42.4425 110.141 42.4425C111.006 42.4425 111.835 42.0989 112.447 41.4873C113.059 40.8757 113.402 40.0462 113.402 39.1813V28.4227C113.402 27.5578 113.059 26.7284 112.447 26.1168C111.835 25.5052 111.006 25.1616 110.141 25.1616Z" fill="#8953E3"/>
<path opacity="0.2" d="M110.141 25.1616C109.276 25.1616 108.447 25.5052 107.835 26.1168C107.223 26.7284 106.88 27.5578 106.88 28.4227V39.1813C106.88 40.0462 107.223 40.8757 107.835 41.4873C108.447 42.0989 109.276 42.4425 110.141 42.4425C111.006 42.4425 111.835 42.0989 112.447 41.4873C113.059 40.8757 113.402 40.0462 113.402 39.1813V28.4227C113.402 27.5578 113.059 26.7284 112.447 26.1168C111.835 25.5052 111.006 25.1616 110.141 25.1616Z" fill="#FAFAFA"/>
<path d="M118.314 18.7474C117.452 18.7514 116.626 19.0968 116.018 19.708C115.41 20.3191 115.068 21.1462 115.068 22.0085V39.1809C115.068 40.0458 115.412 40.8753 116.024 41.4869C116.635 42.0985 117.465 42.4421 118.329 42.4421C119.194 42.4421 120.024 42.0985 120.635 41.4869C121.247 40.8753 121.591 40.0458 121.591 39.1809V22.0085C121.591 21.5789 121.506 21.1536 121.341 20.7569C121.176 20.3602 120.934 20 120.63 19.697C120.326 19.394 119.964 19.1541 119.567 18.9911C119.169 18.8282 118.744 18.7453 118.314 18.7474Z" fill="#8953E3"/>
<path opacity="0.3" d="M118.314 18.7474C117.452 18.7514 116.626 19.0968 116.018 19.708C115.41 20.3191 115.068 21.1462 115.068 22.0085V39.1809C115.068 40.0458 115.412 40.8753 116.024 41.4869C116.635 42.0985 117.465 42.4421 118.329 42.4421C119.194 42.4421 120.024 42.0985 120.635 41.4869C121.247 40.8753 121.591 40.0458 121.591 39.1809V22.0085C121.591 21.5789 121.506 21.1536 121.341 20.7569C121.176 20.3602 120.934 20 120.63 19.697C120.326 19.394 119.964 19.1541 119.567 18.9911C119.169 18.8282 118.744 18.7453 118.314 18.7474Z" fill="black"/>
<path d="M126.482 31.5759C125.617 31.5759 124.787 31.9195 124.176 32.5311C123.564 33.1427 123.221 33.9721 123.221 34.8371V39.1818C123.221 40.0467 123.564 40.8761 124.176 41.4877C124.787 42.0993 125.617 42.4429 126.482 42.4429C126.911 42.4436 127.335 42.3597 127.731 42.1961C128.128 42.0326 128.488 41.7924 128.791 41.4896C129.094 41.1867 129.335 40.8269 129.499 40.4309C129.664 40.0349 129.748 39.6105 129.748 39.1818V34.8371C129.748 34.4084 129.664 33.9839 129.499 33.5879C129.335 33.1919 129.094 32.8322 128.791 32.5293C128.488 32.2264 128.128 31.9863 127.731 31.8227C127.335 31.6591 126.911 31.5753 126.482 31.5759Z" fill="#8953E3"/>
<path opacity="0.6" d="M126.482 31.5759C125.617 31.5759 124.787 31.9195 124.176 32.5311C123.564 33.1427 123.221 33.9721 123.221 34.8371V39.1818C123.221 40.0467 123.564 40.8761 124.176 41.4877C124.787 42.0993 125.617 42.4429 126.482 42.4429C126.911 42.4436 127.335 42.3597 127.731 42.1961C128.128 42.0326 128.488 41.7924 128.791 41.4896C129.094 41.1867 129.335 40.8269 129.499 40.4309C129.664 40.0349 129.748 39.6105 129.748 39.1818V34.8371C129.748 34.4084 129.664 33.9839 129.499 33.5879C129.335 33.1919 129.094 32.8322 128.791 32.5293C128.488 32.2264 128.128 31.9863 127.731 31.8227C127.335 31.6591 126.911 31.5753 126.482 31.5759Z" fill="#FAFAFA"/>
<path d="M195.363 105.332H208.547L186.039 81.9877L195.363 105.332Z" fill="#8953E3"/>
<g opacity="0.1">
<path opacity="0.1" d="M195.363 105.332H208.547L186.039 81.9877L195.363 105.332Z" fill="black"/>
</g>
<g style="mix-blend-mode:multiply">
<path d="M182.69 93.0094L186.039 81.9877L187.938 93.0094H182.69Z" fill="#8953E3"/>
</g>
<path d="M186.039 81.9877V114.65L188.371 112.323L195.363 105.332L186.039 81.9877Z" fill="#8953E3"/>
<path opacity="0.3" d="M186.039 81.9877V114.65L188.371 112.323L195.363 105.332L186.039 81.9877Z" fill="#FAFAFA"/>
<path d="M209.351 11.9258H180.455C178.991 11.9312 177.588 12.515 176.552 13.5501C175.516 14.5852 174.931 15.9877 174.924 17.4521V32.3749C174.931 33.8385 175.515 35.2402 176.55 36.2751C177.585 37.31 178.987 37.8944 180.45 37.9012H201.653L201.498 43.118L206.849 37.9012H209.341C210.806 37.8958 212.209 37.312 213.245 36.2769C214.281 35.2418 214.866 33.8393 214.873 32.3749V17.4521C214.866 15.9894 214.282 14.5885 213.248 13.5537C212.214 12.5189 210.814 11.9339 209.351 11.9258ZM179.805 18.2829C179.805 17.8723 179.968 17.4786 180.259 17.1883C180.549 16.898 180.943 16.7349 181.353 16.7349H188.004C188.415 16.7349 188.809 16.898 189.099 17.1883C189.389 17.4786 189.552 17.8723 189.552 18.2829C189.552 18.6935 189.389 19.0872 189.099 19.3775C188.809 19.6678 188.415 19.8309 188.004 19.8309H181.348C180.938 19.8295 180.546 19.6658 180.257 19.3757C179.968 19.0855 179.805 18.6926 179.805 18.2829ZM207.71 32.7309H196.214C195.991 32.7699 195.763 32.7597 195.545 32.701C195.327 32.6424 195.124 32.5367 194.951 32.3914C194.778 32.2461 194.639 32.0647 194.544 31.8599C194.448 31.6552 194.399 31.432 194.399 31.2061C194.399 30.9802 194.448 30.7571 194.544 30.5523C194.639 30.3475 194.778 30.1661 194.951 30.0208C195.124 29.8755 195.327 29.7699 195.545 29.7112C195.763 29.6526 195.991 29.6424 196.214 29.6813H207.71C207.933 29.6424 208.161 29.6526 208.379 29.7112C208.598 29.7699 208.8 29.8755 208.973 30.0208C209.146 30.1661 209.285 30.3475 209.381 30.5523C209.476 30.7571 209.526 30.9802 209.526 31.2061C209.526 31.432 209.476 31.6552 209.381 31.8599C209.285 32.0647 209.146 32.2461 208.973 32.3914C208.8 32.5367 208.598 32.6424 208.379 32.701C208.161 32.7597 207.933 32.7699 207.71 32.7309ZM207.71 26.2757H182.896C182.674 26.3147 182.445 26.3045 182.227 26.2459C182.009 26.1872 181.806 26.0815 181.633 25.9362C181.46 25.7909 181.321 25.6095 181.226 25.4048C181.13 25.2 181.081 24.9769 181.081 24.751C181.081 24.5251 181.13 24.3019 181.226 24.0971C181.321 23.8924 181.46 23.711 181.633 23.5657C181.806 23.4204 182.009 23.3147 182.227 23.256C182.445 23.1974 182.674 23.1872 182.896 23.2262H207.71C207.933 23.1872 208.161 23.1974 208.379 23.256C208.598 23.3147 208.8 23.4204 208.973 23.5657C209.146 23.711 209.285 23.8924 209.381 24.0971C209.476 24.3019 209.526 24.5251 209.526 24.751C209.526 24.9769 209.476 25.2 209.381 25.4048C209.285 25.6095 209.146 25.7909 208.973 25.9362C208.8 26.0815 208.598 26.1872 208.379 26.2459C208.161 26.3045 207.933 26.3147 207.71 26.2757ZM207.71 19.8206H193.02C192.609 19.8206 192.216 19.6575 191.925 19.3672C191.635 19.0769 191.472 18.6831 191.472 18.2726C191.472 17.862 191.635 17.4683 191.925 17.178C192.216 16.8877 192.609 16.7246 193.02 16.7246H207.71C208.121 16.7246 208.515 16.8877 208.805 17.178C209.095 17.4683 209.258 17.862 209.258 18.2726C209.258 18.6831 209.095 19.0769 208.805 19.3672C208.515 19.6575 208.121 19.8206 207.71 19.8206Z" fill="#8953E3"/>
<path d="M164.161 59.2271C162.927 55.837 161.043 52.7205 158.614 50.0526H117.587C115.158 52.7205 113.274 55.837 112.04 59.2271L117.716 87.4832C122.058 92.1904 127.896 95.2492 134.238 96.14C140.58 97.0308 147.034 95.6987 152.505 92.3699C157.976 89.0411 162.126 83.921 164.25 77.8793C166.374 71.8376 166.341 65.247 164.156 59.2271H164.161Z" fill="#8953E3"/>
<path opacity="0.1" d="M164.161 59.2271C162.927 55.837 161.043 52.7205 158.614 50.0526H117.587C115.158 52.7205 113.274 55.837 112.04 59.2271L117.716 87.4832C122.058 92.1904 127.896 95.2492 134.238 96.14C140.58 97.0308 147.034 95.6987 152.505 92.3699C157.976 89.0411 162.126 83.921 164.25 77.8793C166.374 71.8376 166.341 65.247 164.156 59.2271H164.161Z" fill="#FAFAFA"/>
<path d="M165.797 69.9762C165.504 76.4915 162.916 82.6933 158.491 87.4841H117.727C114.285 83.7446 111.936 79.1325 110.935 74.1501C109.935 69.1677 110.32 64.0062 112.051 59.2279H164.167C165.418 62.6669 165.973 66.3207 165.797 69.9762Z" fill="#8953E3"/>
<path opacity="0.9" d="M165.797 69.9762C165.504 76.4915 162.916 82.6933 158.491 87.4841H117.727C114.285 83.7446 111.936 79.1325 110.935 74.1501C109.935 69.1677 110.32 64.0062 112.051 59.2279H164.167C165.418 62.6669 165.973 66.3207 165.797 69.9762Z" fill="#FAFAFA"/>
<path opacity="0.3" d="M165.798 69.9762C165.477 76.8324 162.619 83.3245 157.779 88.1909C152.938 93.0573 146.462 95.9504 139.607 96.308C132.753 96.6656 126.01 94.4622 120.69 90.126C115.369 85.7897 111.851 79.6304 110.818 72.8447C109.785 66.0591 111.312 59.1319 115.102 53.4092C118.892 47.6866 124.673 43.5771 131.324 41.8795C137.974 40.1819 145.019 41.0173 151.087 44.2235C157.156 47.4297 161.817 52.7775 164.163 59.2279C165.414 62.667 165.97 66.3205 165.798 69.9762Z" fill="white"/>
<path opacity="0.4" d="M153.729 45.8007L113.863 82.1581C113.663 81.79 113.467 81.4185 113.275 81.0435C112.056 78.6033 111.209 75.9944 110.762 73.3035L145.194 41.8998C148.241 42.7027 151.128 44.0222 153.729 45.8007Z" fill="white"/>
<path opacity="0.4" d="M164.394 59.8936L126.937 94.0734C123.052 92.3592 119.613 89.7745 116.886 86.5192L157.815 49.1918C160.798 52.2089 163.048 55.8701 164.394 59.8936Z" fill="white"/>
<path d="M165.787 52.7104C162.625 47.2276 157.907 42.8059 152.231 40.0048C146.556 37.2036 140.177 36.149 133.901 36.9743C127.626 37.7996 121.737 40.4678 116.978 44.6412C112.22 48.8146 108.806 54.3056 107.169 60.4196C105.533 66.5336 105.746 72.9957 107.783 78.9883C109.82 84.9809 113.588 90.2348 118.612 94.085C123.635 97.9352 129.688 100.209 136.004 100.618C142.32 101.028 148.616 99.5542 154.094 96.3847C161.432 92.1395 166.784 85.1556 168.977 76.9668C171.169 68.778 170.022 60.0539 165.787 52.7104ZM116.251 81.3175C113.756 76.9966 112.598 72.033 112.924 67.0543C113.25 62.0756 115.045 57.3054 118.082 53.3469C121.12 49.3884 125.262 46.4193 129.987 44.8152C134.711 43.2111 139.805 43.0439 144.625 44.3348C149.444 45.6257 153.773 48.3168 157.063 52.0676C160.353 55.8185 162.457 60.4608 163.109 65.4074C163.76 70.354 162.931 75.3828 160.725 79.8579C158.518 84.333 155.035 88.0534 150.714 90.5487C147.846 92.2055 144.679 93.281 141.394 93.7138C138.11 94.1465 134.773 93.9281 131.573 93.0708C128.373 92.2136 125.373 90.7344 122.745 88.7178C120.117 86.7011 117.912 84.1864 116.256 81.3175H116.251Z" fill="#8953E3"/>
<path opacity="0.1" d="M165.787 52.7104C162.625 47.2276 157.907 42.8059 152.231 40.0048C146.556 37.2036 140.177 36.149 133.901 36.9743C127.626 37.7996 121.737 40.4678 116.978 44.6412C112.22 48.8146 108.806 54.3056 107.169 60.4196C105.533 66.5336 105.746 72.9957 107.783 78.9883C109.82 84.9809 113.588 90.2348 118.612 94.085C123.635 97.9352 129.688 100.209 136.004 100.618C142.32 101.028 148.616 99.5542 154.094 96.3847C161.432 92.1395 166.784 85.1556 168.977 76.9668C171.169 68.778 170.022 60.0539 165.787 52.7104ZM116.251 81.3175C113.756 76.9966 112.598 72.033 112.924 67.0543C113.25 62.0756 115.045 57.3054 118.082 53.3469C121.12 49.3884 125.262 46.4193 129.987 44.8152C134.711 43.2111 139.805 43.0439 144.625 44.3348C149.444 45.6257 153.773 48.3168 157.063 52.0676C160.353 55.8185 162.457 60.4608 163.109 65.4074C163.76 70.354 162.931 75.3828 160.725 79.8579C158.518 84.333 155.035 88.0534 150.714 90.5487C147.846 92.2055 144.679 93.281 141.394 93.7138C138.11 94.1465 134.773 93.9281 131.573 93.0708C128.373 92.2136 125.373 90.7344 122.745 88.7178C120.117 86.7011 117.912 84.1864 116.256 81.3175H116.251Z" fill="black"/>
<path d="M64.5322 101.596L68.4847 102.514L65.2081 104.96C65.2081 104.96 62.8603 103.897 62.752 102.231L64.5322 101.596Z" fill="#E4897B"/>
<path d="M70.6002 105.146L67.7519 107.045L65.208 104.96L68.4846 102.52L70.6002 105.146Z" fill="#E4897B"/>
<path d="M115.312 85.5436C111.112 88.6396 106.803 91.5808 102.474 94.4549C98.1447 97.329 93.7587 100.131 89.3521 102.881C84.9454 105.631 80.4975 108.325 76.0341 110.941C73.805 112.272 71.5552 113.562 69.3261 114.873C68.2188 115.578 67.0116 116.112 65.7451 116.457C65.0693 116.636 64.3783 116.752 63.6811 116.803C62.9069 116.866 62.1279 116.826 61.3642 116.684C60.8185 116.576 60.2994 116.362 59.8367 116.053C59.374 115.744 58.9767 115.347 58.6675 114.885C58.3584 114.422 58.1435 113.903 58.0351 113.358C57.9268 112.812 57.9271 112.25 58.036 111.705C58.0714 111.529 58.1196 111.357 58.1805 111.189C58.4296 110.457 58.7768 109.763 59.2125 109.125C59.6012 108.551 60.0435 108.015 60.5335 107.525C61.4667 106.601 62.5328 105.822 63.6966 105.213C65.9515 103.929 68.1909 102.633 70.4613 101.359C74.9815 98.8048 79.5429 96.3176 84.1147 93.8615C88.6864 91.4053 93.315 89.0266 97.9693 86.7046C102.624 84.3826 107.314 82.1225 112.103 80.0378C112.825 79.7183 113.64 79.6771 114.392 79.922C115.143 80.1669 115.777 80.6807 116.172 81.3648C116.568 82.0488 116.697 82.8548 116.534 83.628C116.371 84.4012 115.929 85.0871 115.291 85.5539L115.312 85.5436Z" fill="#8953E3"/>
<path opacity="0.1" d="M115.312 85.5436C111.112 88.6396 106.803 91.5808 102.474 94.4549C98.1447 97.329 93.7587 100.131 89.3521 102.881C84.9454 105.631 80.4975 108.325 76.0341 110.941C73.805 112.272 71.5552 113.562 69.3261 114.873C68.2188 115.578 67.0116 116.112 65.7451 116.457C65.0693 116.636 64.3783 116.752 63.6811 116.803C62.9069 116.866 62.1279 116.826 61.3642 116.684C60.8185 116.576 60.2994 116.362 59.8367 116.053C59.374 115.744 58.9767 115.347 58.6675 114.885C58.3584 114.422 58.1435 113.903 58.0351 113.358C57.9268 112.812 57.9271 112.25 58.036 111.705C58.0714 111.529 58.1196 111.357 58.1805 111.189C58.4296 110.457 58.7768 109.763 59.2125 109.125C59.6012 108.551 60.0435 108.015 60.5335 107.525C61.4667 106.601 62.5328 105.822 63.6966 105.213C65.9515 103.929 68.1909 102.633 70.4613 101.359C74.9815 98.8048 79.5429 96.3176 84.1147 93.8615C88.6864 91.4053 93.315 89.0266 97.9693 86.7046C102.624 84.3826 107.314 82.1225 112.103 80.0378C112.825 79.7183 113.64 79.6771 114.392 79.922C115.143 80.1669 115.777 80.6807 116.172 81.3648C116.568 82.0488 116.697 82.8548 116.534 83.628C116.371 84.4012 115.929 85.0871 115.291 85.5539L115.312 85.5436Z" fill="black"/>
<path d="M70.2591 77.1542C70.0011 77.5721 69.707 78.0778 69.4283 78.5525C69.1497 79.0272 68.8762 79.5226 68.6182 80.0231C68.1022 81.0087 67.5862 82.0097 67.0702 83.0262C66.5542 84.0428 66.1363 85.0902 65.7131 86.1222C65.5067 86.6382 65.29 87.1542 65.0991 87.6702L64.8101 88.4597C64.7534 88.6094 64.7431 88.6713 64.7069 88.7796C64.6708 88.888 64.6553 88.9912 64.6244 89.0944C64.423 90.1141 64.321 91.151 64.3199 92.1904C64.2941 93.2998 64.3199 94.4298 64.3819 95.5702C64.4438 96.7106 64.5057 97.8561 64.6089 99.0016C64.7121 100.147 64.8153 101.313 64.9237 102.448L62.9319 102.856C62.581 101.705 62.3075 100.56 62.0341 99.3989C61.7606 98.2379 61.5542 97.0718 61.3529 95.885C61.1517 94.6982 61.0175 93.5062 60.9298 92.273C60.8225 90.9815 60.8554 89.6822 61.0279 88.3978C61.0588 88.2172 61.0846 88.0469 61.1311 87.8818C61.1775 87.7167 61.2239 87.4845 61.2652 87.3658L61.5181 86.4886C61.6832 85.9055 61.8741 85.3276 62.0702 84.7548C62.4675 83.6042 62.9009 82.4741 63.386 81.3596C63.871 80.245 64.387 79.1562 64.934 78.083C65.2178 77.567 65.5171 77.0148 65.8215 76.4834C66.1259 75.9519 66.4304 75.4514 66.8122 74.8889L70.2591 77.1542Z" fill="#E4897B"/>
<path d="M68.0569 183.697C67.7087 183.686 67.3627 183.638 67.0249 183.553C67.0068 183.55 66.9901 183.541 66.9772 183.528C66.9642 183.515 66.9557 183.498 66.9527 183.48C66.9494 183.462 66.9515 183.443 66.9589 183.425C66.9662 183.408 66.9784 183.393 66.9939 183.382C67.1333 183.289 68.351 182.505 68.8206 182.717C68.8728 182.741 68.9176 182.778 68.9503 182.825C68.9829 182.873 69.0023 182.928 69.0063 182.985C69.0306 183.077 69.0289 183.174 69.0016 183.265C68.9743 183.356 68.9224 183.438 68.8515 183.501C68.6191 183.66 68.3368 183.73 68.0569 183.697ZM67.2674 183.418C67.9692 183.558 68.4955 183.532 68.6967 183.346C68.741 183.304 68.7733 183.25 68.7905 183.192C68.8077 183.133 68.8092 183.07 68.7948 183.011C68.7941 182.985 68.786 182.959 68.7714 182.937C68.7568 182.915 68.7363 182.898 68.7122 182.887C68.4697 182.779 67.7628 183.119 67.2674 183.418Z" fill="#8953E3"/>
<path d="M67.0188 183.557C67.0037 183.561 66.9875 183.561 66.9724 183.557C66.9575 183.549 66.9453 183.537 66.937 183.522C66.9288 183.508 66.925 183.491 66.9259 183.474C66.9259 183.428 66.9259 182.272 67.3645 181.885C67.4187 181.836 67.4826 181.8 67.552 181.777C67.6213 181.755 67.6946 181.748 67.767 181.756C67.8431 181.757 67.9165 181.784 67.9748 181.833C68.033 181.882 68.0727 181.95 68.0869 182.024C68.1798 182.473 67.4471 183.34 67.0549 183.572C67.0418 183.57 67.0294 183.565 67.0188 183.557ZM67.7051 181.926C67.6269 181.927 67.5516 181.956 67.4935 182.009C67.2398 182.383 67.1099 182.827 67.122 183.278C67.5039 182.969 67.9579 182.318 67.9012 182.045C67.9012 181.998 67.865 181.947 67.7464 181.931L67.7051 181.926Z" fill="#8953E3"/>
<path d="M86.3335 183.697C85.9083 183.69 85.4849 183.642 85.0693 183.552C85.0495 183.55 85.0311 183.541 85.017 183.527C85.0029 183.513 84.9941 183.494 84.9919 183.475C84.9896 183.455 84.9933 183.435 85.0025 183.418C85.0117 183.4 85.026 183.386 85.0435 183.377C85.2241 183.284 86.8237 182.468 87.3139 182.737C87.361 182.761 87.401 182.797 87.43 182.841C87.4589 182.886 87.4758 182.937 87.479 182.99C87.4903 183.075 87.4801 183.161 87.4495 183.241C87.4188 183.322 87.3687 183.393 87.3035 183.449C87.0182 183.64 86.6757 183.728 86.3335 183.697ZM85.384 183.418C86.2767 183.568 86.932 183.526 87.1797 183.31C87.2208 183.271 87.2522 183.224 87.271 183.171C87.2899 183.118 87.2957 183.061 87.2881 183.005C87.2879 182.984 87.282 182.963 87.2712 182.945C87.2603 182.927 87.2447 182.912 87.2261 182.902C86.9578 182.757 86.0393 183.103 85.384 183.418Z" fill="#8953E3"/>
<path d="M85.0853 183.557C85.0771 183.56 85.0683 183.562 85.0595 183.562C85.0506 183.562 85.0418 183.56 85.0337 183.557C85.0188 183.549 85.0068 183.537 84.9994 183.522C84.9919 183.508 84.9895 183.491 84.9924 183.474C84.9924 183.428 85.0904 182.344 85.591 181.926C85.7347 181.806 85.92 181.747 86.107 181.761C86.3701 181.787 86.4424 181.921 86.463 182.03C86.5352 182.484 85.591 183.35 85.1111 183.578L85.0853 183.557ZM86.045 181.926C85.9238 181.928 85.8069 181.971 85.7148 182.05C85.4188 182.4 85.2385 182.832 85.1988 183.289C85.6838 182.994 86.3288 182.313 86.2824 182.04C86.2824 182.04 86.2824 181.947 86.0966 181.931L86.045 181.926Z" fill="#8953E3"/>
<path d="M76.3703 61.6571C76.685 64.0668 77.4023 68.9533 75.6582 70.4291C75.6582 70.4291 76.1742 72.8853 80.5705 73.1691C85.4312 73.4838 83.0473 70.909 83.0473 70.909C80.4364 70.104 80.6324 68.1381 81.2155 66.3217L76.3703 61.6571Z" fill="#E4897B"/>
<path d="M85.384 56.7601C85.353 56.7594 85.3227 56.7505 85.2963 56.7343C85.2738 56.723 85.2538 56.7071 85.2377 56.6878C85.2215 56.6685 85.2094 56.6461 85.2022 56.6219C85.1949 56.5978 85.1927 56.5725 85.1955 56.5474C85.1984 56.5224 85.2063 56.4982 85.2188 56.4763C85.3529 56.2034 85.551 55.9669 85.7964 55.7872C86.0417 55.6075 86.3269 55.4898 86.6275 55.4443C86.6737 55.4461 86.7177 55.4646 86.7513 55.4963C86.7849 55.5281 86.8058 55.5709 86.8102 55.6169C86.8146 55.6629 86.8022 55.7089 86.7753 55.7465C86.7483 55.784 86.7086 55.8105 86.6637 55.821C86.4284 55.8621 86.2058 55.9571 86.0133 56.0985C85.8209 56.24 85.6637 56.424 85.5543 56.6363C85.5396 56.6703 85.5161 56.6998 85.4861 56.7216C85.4561 56.7434 85.4209 56.7567 85.384 56.7601Z" fill="#263238"/>
<path d="M86.7715 58.8772C87.127 59.5859 87.5784 60.2422 88.1131 60.8277C87.9598 60.961 87.7792 61.0591 87.584 61.1153C87.3888 61.1714 87.1837 61.1842 86.983 61.1528L86.7715 58.8772Z" fill="#DE5753"/>
<path d="M86.4309 58.3513C86.4619 58.6763 86.658 58.9189 86.8644 58.8982C87.0708 58.8776 87.2256 58.6041 87.1946 58.279C87.1637 57.9539 86.9676 57.7114 86.756 57.7321C86.5445 57.7527 86.4 58.0313 86.4309 58.3513Z" fill="#263238"/>
<path d="M86.6895 57.7563L87.4428 57.4622C87.4428 57.4622 87.0816 58.102 86.6895 57.7563Z" fill="#263238"/>
<path d="M80.668 183.459H84.6876L84.9559 174.161H80.9363L80.668 183.459Z" fill="#E4897B"/>
<path d="M62.418 183.459H66.4376L67.7276 174.161H63.7131L62.418 183.459Z" fill="#E4897B"/>
<path d="M66.6851 182.996H62.1701C62.0927 182.995 62.0176 183.022 61.9588 183.072C61.9 183.123 61.8614 183.193 61.8501 183.269L61.3341 186.84C61.324 186.93 61.3329 187.021 61.3604 187.108C61.388 187.194 61.4334 187.274 61.4938 187.341C61.5541 187.409 61.6281 187.463 61.7109 187.5C61.7936 187.538 61.8833 187.557 61.974 187.557C63.522 187.531 64.3063 187.438 66.2929 187.438C67.5107 187.438 69.296 187.562 70.9833 187.562C72.6707 187.562 72.7584 185.896 72.0566 185.746C68.909 185.07 68.4137 184.136 67.3507 183.243C67.1651 183.085 66.9292 182.997 66.6851 182.996Z" fill="#263238"/>
<path d="M84.8219 182.996H80.312C80.2344 182.994 80.1587 183.021 80.0997 183.071C80.0406 183.122 80.0023 183.192 79.9921 183.269L79.4761 186.84C79.4667 186.93 79.4764 187.022 79.5046 187.108C79.5327 187.195 79.5786 187.274 79.6394 187.342C79.7002 187.409 79.7744 187.463 79.8574 187.5C79.9404 187.538 80.0302 187.557 80.1211 187.557C81.6691 187.531 82.4534 187.438 84.4349 187.438C85.6578 187.438 88.181 187.562 89.8684 187.562C91.5557 187.562 91.6434 185.896 90.9416 185.746C87.794 185.07 86.5556 184.136 85.4927 183.243C85.3057 183.084 85.0679 182.996 84.8219 182.996Z" fill="#263238"/>
<path d="M84.9517 174.161L84.8175 178.954H80.7979L80.9372 174.161H84.9517Z" fill="#CE6F64"/>
<path d="M63.7067 174.161H67.7263L67.0607 178.954H63.041L63.7067 174.161Z" fill="#CE6F64"/>
<path d="M71.9728 77.773C71.21 78.9648 70.3264 80.0749 69.3361 81.0857L68.8768 80.7813L63.7891 77.4015C63.7891 77.4015 66.5651 71.2095 68.6549 70.8947C70.6519 70.5748 72.107 72.6388 72.7829 74.8473C73.0409 75.6471 72.6127 76.7307 71.9728 77.773Z" fill="#8953E3"/>
<path opacity="0.6" d="M71.9728 77.773C71.21 78.9648 70.3264 80.0749 69.3361 81.0857L68.8768 80.7813L63.7891 77.4015C63.7891 77.4015 66.5651 71.2095 68.6549 70.8947C70.6519 70.5748 72.107 72.6388 72.7829 74.8473C73.0409 75.6471 72.6127 76.7307 71.9728 77.773Z" fill="#FAFAFA"/>
<path d="M71.972 77.7717C71.2091 78.9635 70.3255 80.0736 69.3352 81.0844L68.876 80.78C69.103 78.9224 69.8254 77.0803 70.651 76.4972C71.1567 76.5488 71.6056 77.0854 71.972 77.7717Z" fill="#8953E3"/>
<path opacity="0.4" d="M71.972 77.7717C71.2091 78.9635 70.3255 80.0736 69.3352 81.0844L68.876 80.78C69.103 78.9224 69.8254 77.0803 70.651 76.4972C71.1567 76.5488 71.6056 77.0854 71.972 77.7717Z" fill="#FAFAFA"/>
<path d="M89.3788 80.8635C89.1363 82.4115 88.8215 84.2329 88.3984 86.395C87.8824 89.1607 87.16 92.4786 86.2467 96.4467L69.9669 95.4147C70.6686 88.8047 70.9421 84.718 68.6562 70.915C70.9674 70.5922 73.299 70.4387 75.6326 70.4558C78.1039 70.4395 80.5732 70.5999 83.0217 70.9356C86.1796 71.4516 89.7297 72.4011 89.7297 72.4011C89.7297 72.4011 90.6378 72.7571 89.3788 80.8635Z" fill="#8953E3"/>
<path opacity="0.6" d="M89.3788 80.8635C89.1363 82.4115 88.8215 84.2329 88.3984 86.395C87.8824 89.1607 87.16 92.4786 86.2467 96.4467L69.9669 95.4147C70.6686 88.8047 70.9421 84.718 68.6562 70.915C70.9674 70.5922 73.299 70.4387 75.6326 70.4558C78.1039 70.4395 80.5732 70.5999 83.0217 70.9356C86.1796 71.4516 89.7297 72.4011 89.7297 72.4011C89.7297 72.4011 90.6378 72.7571 89.3788 80.8635Z" fill="#FAFAFA"/>
<path d="M89.3772 80.8633C89.1347 82.4113 88.8199 84.2328 88.3968 86.3948C87.5014 84.4905 86.7578 82.5184 86.1729 80.4969H89.1966L89.3772 80.8633Z" fill="#8953E3"/>
<path opacity="0.4" d="M89.3772 80.8633C89.1347 82.4113 88.8199 84.2328 88.3968 86.3948C87.5014 84.4905 86.7578 82.5184 86.1729 80.4969H89.1966L89.3772 80.8633Z" fill="#FAFAFA"/>
<path d="M75.483 58.2687C76.097 62.2058 76.2776 63.8879 78.4706 65.7301C81.7678 68.5061 86.4686 66.8859 87.0414 62.8405C87.5574 59.2027 86.4634 53.3718 82.4335 52.1644C81.547 51.8924 80.6058 51.8518 79.6992 52.0465C78.7926 52.2411 77.9509 52.6645 77.2543 53.2764C76.5576 53.8882 76.0291 54.6682 75.719 55.542C75.409 56.4159 75.3277 57.3546 75.483 58.2687Z" fill="#E4897B"/>
<path d="M81.9411 96.1682C81.9411 96.1682 81.6831 103.335 81.0639 112.376C80.5479 119.961 79.7687 128.857 78.68 135.947L78.649 136.143C76.6934 148.692 68.0297 178.021 68.0297 178.021H62.5498C62.5498 178.021 67.0648 149.693 68.0555 137.257C70.5684 105.848 64.2732 102.293 69.9647 95.3684L81.9411 96.1682Z" fill="#8953E3"/>
<path opacity="0.3" d="M81.9411 96.1682C81.9411 96.1682 81.6831 103.335 81.0639 112.376C80.5479 119.961 79.7687 128.857 78.68 135.947L78.649 136.143C76.6934 148.692 68.0297 178.021 68.0297 178.021H62.5498C62.5498 178.021 67.0648 149.693 68.0555 137.257C70.5684 105.848 64.2732 102.293 69.9647 95.3684L81.9411 96.1682Z" fill="black"/>
<path d="M81.0644 112.375C80.5484 119.961 79.7693 128.856 78.6805 135.946C76.8281 126.736 73.7837 113.283 77.8704 104.47C78.8456 106.973 79.9808 109.8 81.0644 112.375Z" fill="#8953E3"/>
<path opacity="0.4" d="M81.0644 112.375C80.5484 119.961 79.7693 128.856 78.6805 135.946C76.8281 126.736 73.7837 113.283 77.8704 104.47C78.8456 106.973 79.9808 109.8 81.0644 112.375Z" fill="black"/>
<path d="M86.2451 96.452C86.2451 96.452 90.8891 123.975 90.6104 136.225C90.337 148.97 85.6672 178.021 85.6672 178.021H80.2388C80.2388 178.021 81.0954 149.708 80.6155 137.195C80.0995 123.552 74.3203 95.6729 74.3203 95.6729L86.2451 96.452Z" fill="#8953E3"/>
<path opacity="0.3" d="M86.2451 96.452C86.2451 96.452 90.8891 123.975 90.6104 136.225C90.337 148.97 85.6672 178.021 85.6672 178.021H80.2388C80.2388 178.021 81.0954 149.708 80.6155 137.195C80.0995 123.552 74.3203 95.6729 74.3203 95.6729L86.2451 96.452Z" fill="black"/>
<path d="M79.3107 178.279H86.5915L87.1591 175.838L79.0527 175.895L79.3107 178.279Z" fill="#263238"/>
<path d="M61.7568 178.279H69.0376L69.6052 175.838L61.8084 175.895L61.7568 178.279Z" fill="#263238"/>
<path d="M69.7811 94.4285L68.9555 95.8423C68.8884 95.9507 69.0174 96.0745 69.2032 96.0848L86.2776 97.1942C86.4221 97.1942 86.5511 97.1426 86.5666 97.0498L86.8091 95.5998C86.8091 95.5018 86.7007 95.4089 86.5408 95.3986L70.0288 94.3253C69.9824 94.3232 69.9362 94.3313 69.8934 94.3492C69.8506 94.367 69.8122 94.3941 69.7811 94.4285Z" fill="#263238"/>
<path d="M71.8751 96.4107L71.4365 96.3797C71.3488 96.3797 71.2817 96.323 71.2921 96.2714L71.6223 94.388C71.6223 94.3364 71.71 94.2951 71.7977 94.3002L72.2415 94.326C72.3292 94.326 72.3911 94.3828 72.386 94.4396L72.0557 96.3178C72.0454 96.3746 71.9629 96.4158 71.8751 96.4107Z" fill="#8953E3"/>
<path opacity="0.3" d="M71.8751 96.4107L71.4365 96.3797C71.3488 96.3797 71.2817 96.323 71.2921 96.2714L71.6223 94.388C71.6223 94.3364 71.71 94.2951 71.7977 94.3002L72.2415 94.326C72.3292 94.326 72.3911 94.3828 72.386 94.4396L72.0557 96.3178C72.0454 96.3746 71.9629 96.4158 71.8751 96.4107Z" fill="black"/>
<path d="M82.5617 97.1026L82.1231 97.0768C82.0353 97.0768 81.9683 97.02 81.9786 96.9633L82.3088 95.085C82.3088 95.0283 82.3966 94.9922 82.4894 94.9973L82.928 95.0231C83.0158 95.0231 83.0828 95.0799 83.0725 95.1366L82.7423 97.0149C82.7474 97.0716 82.6649 97.1077 82.5617 97.1026Z" fill="#8953E3"/>
<path opacity="0.3" d="M82.5617 97.1026L82.1231 97.0768C82.0353 97.0768 81.9683 97.02 81.9786 96.9633L82.3088 95.085C82.3088 95.0283 82.3966 94.9922 82.4894 94.9973L82.928 95.0231C83.0158 95.0231 83.0828 95.0799 83.0725 95.1366L82.7423 97.0149C82.7474 97.0716 82.6649 97.1077 82.5617 97.1026Z" fill="black"/>
<path d="M90.6515 76.5287C91.2707 78.5927 91.8589 80.6825 92.4317 82.7671L94.1603 89.0056L94.377 89.7796L94.4338 89.9705L94.4596 90.0685V90.1201C94.478 90.1884 94.5004 90.2556 94.5266 90.3214C94.6533 90.635 94.8273 90.9274 95.0426 91.1882C95.6588 91.8385 96.3725 92.3886 97.1582 92.8188C98.9583 93.793 100.862 94.5615 102.834 95.1098L102.535 97.1222C100.221 97.003 97.9419 96.5099 95.7857 95.662C94.5926 95.1944 93.4933 94.5163 92.54 93.6599C91.994 93.1538 91.5401 92.5566 91.1984 91.8952C91.1062 91.7164 91.0252 91.532 90.9559 91.343L90.8992 91.2037L90.863 91.1057L90.796 90.9148L90.5225 90.1356C89.8001 88.0716 89.1293 86.0076 88.4946 83.9126C87.8599 81.8177 87.2356 79.7537 86.668 77.6484L90.6515 76.5287Z" fill="#E4897B"/>
<path d="M89.7288 72.38C91.7928 73.056 93.96 79.8053 93.96 79.8053L86.509 83.0148C86.509 83.0148 83.413 75.4399 84.7855 73.7268C86.1581 72.0137 87.3604 71.606 89.7288 72.38Z" fill="#8953E3"/>
<path opacity="0.6" d="M89.7288 72.38C91.7928 73.056 93.96 79.8053 93.96 79.8053L86.509 83.0148C86.509 83.0148 83.413 75.4399 84.7855 73.7268C86.1581 72.0137 87.3604 71.606 89.7288 72.38Z" fill="#FAFAFA"/>
<path d="M85.7462 51.936C84.4304 50.3106 74.2652 49.1496 73.7234 53.5768C70.1114 56.1052 73.5376 62.6378 74.0536 64.2993C71.5614 64.9908 63.5324 67.7359 69.4096 73.0713C75.2869 78.4068 84.1002 77.4986 85.8236 71.9774C87.031 68.1177 83.1972 61.6574 83.2797 59.3973C83.3623 57.1372 88.0011 54.6966 85.7462 51.936Z" fill="#263238"/>
<path d="M74.7648 65.1156C74.7459 65.1163 74.7272 65.1124 74.7102 65.1043C74.6931 65.0962 74.6782 65.0842 74.6668 65.0692C73.7328 63.934 70.482 57.969 71.6224 55.131C71.7992 54.6907 72.0991 54.3106 72.4861 54.0361C72.8731 53.7616 73.331 53.6043 73.805 53.583C73.8217 53.5809 73.8387 53.5822 73.8548 53.5868C73.871 53.5914 73.8861 53.5992 73.8991 53.6099C73.9121 53.6205 73.9229 53.6337 73.9307 53.6486C73.9384 53.6635 73.9431 53.6798 73.9444 53.6966C73.9488 53.73 73.9399 53.7639 73.9197 53.7909C73.8994 53.8179 73.8694 53.8359 73.836 53.841C73.4098 53.8568 72.9971 53.9945 72.6468 54.2378C72.2965 54.4811 72.0233 54.8197 71.8597 55.2136C70.7606 57.9587 73.9495 63.7844 74.8628 64.8989C74.8791 64.9171 74.8897 64.9397 74.8932 64.9639C74.8967 64.988 74.893 65.0127 74.8825 65.0348C74.872 65.0568 74.8553 65.0753 74.8343 65.0878C74.8134 65.1004 74.7892 65.1065 74.7648 65.1053V65.1156Z" fill="#263238"/>
<path d="M82.4747 59.1559C82.5899 59.9094 82.953 60.6031 83.5067 61.127C84.2394 61.8288 84.9309 61.3489 84.9979 60.4562C85.0599 59.6564 84.7503 58.3303 83.8834 57.9588C83.0165 57.5872 82.3663 58.2632 82.4747 59.1559Z" fill="#E4897B"/>
<path d="M100.307 94.5524L103.238 93.5565L102.779 97.0808C102.779 97.0808 101.623 97.5968 100.127 96.2965L98.6973 95.3832L99.8221 94.7691C99.9764 94.6813 100.139 94.6087 100.307 94.5524Z" fill="#E4897B"/>
<path d="M105.286 93.546L104.388 96.6265L102.778 97.0755L103.238 93.5563L105.286 93.546Z" fill="#E4897B"/>
</svg>
