<svg width="265" height="198" viewBox="0 0 265 198" fill="none" xmlns="http://www.w3.org/2000/svg">
<path d="M264.603 173.26H0V173.392H264.603V173.26Z" fill="#E6E6E6"/>
<path d="M56.091 179.539H27.334V179.672H56.091V179.539Z" fill="#E6E6E6"/>
<path d="M132.831 176.664H122.004V176.796H132.831V176.664Z" fill="#E6E6E6"/>
<path d="M95.9362 176.664H80.0918V176.796H95.9362V176.664Z" fill="#E6E6E6"/>
<path d="M226.979 178.189H193.459V178.321H226.979V178.189Z" fill="#E6E6E6"/>
<path d="M126.597 178.189H119.034V178.321H126.597V178.189Z" fill="#E6E6E6"/>
<path d="M68.2682 179.539H61.2139V179.672H68.2682V179.539Z" fill="#E6E6E6"/>
<path d="M235.81 178.189H231.307V178.321H235.81V178.189Z" fill="#E6E6E6"/>
<path d="M125.422 149.659H23.2382C22.4376 149.658 21.6704 149.339 21.1049 148.772C20.5393 148.206 20.2217 147.438 20.2217 146.638V2.9953C20.2286 2.19939 20.5494 1.43837 21.1142 0.877538C21.6789 0.316707 22.4422 0.00136344 23.2382 0H125.422C126.224 0 126.992 0.318364 127.559 0.885054C128.126 1.45174 128.444 2.22034 128.444 3.02176V146.638C128.444 147.439 128.126 148.208 127.559 148.774C126.992 149.341 126.224 149.659 125.422 149.659ZM23.2382 0.105841C22.4727 0.107243 21.7391 0.412286 21.1984 0.954013C20.6577 1.49574 20.354 2.22989 20.354 2.9953V146.638C20.354 147.403 20.6577 148.137 21.1984 148.679C21.7391 149.221 22.4727 149.526 23.2382 149.527H125.422C126.188 149.526 126.922 149.221 127.464 148.679C128.006 148.138 128.311 147.403 128.312 146.638V2.9953C128.311 2.2294 128.006 1.49527 127.464 0.95369C126.922 0.412114 126.188 0.10724 125.422 0.105841H23.2382Z" fill="#E6E6E6"/>
<path d="M239.897 149.659H137.707C136.906 149.658 136.139 149.339 135.572 148.773C135.006 148.206 134.687 147.439 134.686 146.638V2.9953C134.694 2.19891 135.016 1.43789 135.581 0.877207C136.147 0.316522 136.911 0.00134857 137.707 0H239.897C240.692 0.00275425 241.454 0.318714 242.017 0.879395C242.581 1.44008 242.901 2.2003 242.908 2.9953V146.638C242.908 147.437 242.591 148.204 242.027 148.771C241.462 149.337 240.696 149.656 239.897 149.659ZM137.707 0.105841C136.941 0.10724 136.207 0.412114 135.666 0.95369C135.124 1.49527 134.819 2.2294 134.818 2.9953V146.638C134.819 147.403 135.124 148.138 135.666 148.679C136.207 149.221 136.941 149.526 137.707 149.527H239.897C240.663 149.526 241.397 149.221 241.938 148.679C242.48 148.138 242.785 147.403 242.786 146.638V2.9953C242.785 2.2294 242.48 1.49527 241.938 0.95369C241.397 0.412114 240.663 0.10724 239.897 0.105841H137.707Z" fill="#E6E6E6"/>
<path d="M218.116 16.1719H100.161V84.7357H218.116V16.1719Z" fill="#E6E6E6"/>
<path d="M219.709 16.1719H101.754V84.7357H219.709V16.1719Z" fill="#F5F5F5"/>
<path d="M216.847 81.5186V19.3899L104.618 19.3899V81.5186H216.847Z" fill="white"/>
<path d="M216.852 81.5186V19.3899H215.645V81.5186H216.852Z" fill="#E6E6E6"/>
<path d="M218.531 62.2072H102.942V66.5255H218.531V62.2072Z" fill="#F5F5F5"/>
<path d="M133.886 127.597H114.518V170.542H133.886V127.597Z" fill="#E6E6E6"/>
<path d="M203.503 170.544H118.237V173.264H203.503V170.544Z" fill="#E6E6E6"/>
<path d="M133.882 170.544H207.22V127.599H133.882V170.544Z" fill="#F5F5F5"/>
<path d="M141.504 146.966H199.61V132.884H141.504V146.966Z" fill="#E6E6E6"/>
<path d="M141.504 165.25H199.61V151.167H141.504V165.25Z" fill="#E6E6E6"/>
<path d="M179.268 138.959H161.846C161.376 138.959 160.994 139.341 160.994 139.811V140.039C160.994 140.509 161.376 140.891 161.846 140.891H179.268C179.738 140.891 180.12 140.509 180.12 140.039V139.811C180.12 139.341 179.738 138.959 179.268 138.959Z" fill="#F5F5F5"/>
<path d="M179.268 157.249H161.846C161.376 157.249 160.994 157.631 160.994 158.101V158.329C160.994 158.799 161.376 159.181 161.846 159.181H179.268C179.738 159.181 180.12 158.799 180.12 158.329V158.101C180.12 157.631 179.738 157.249 179.268 157.249Z" fill="#F5F5F5"/>
<path d="M75.8779 173.262H34.6157L28.9268 36.3728H70.1889L75.8779 173.262Z" fill="#E6E6E6"/>
<path d="M81.8528 173.262H35.6743L29.9854 36.3728H76.1638L81.8528 173.262Z" fill="#F5F5F5"/>
<path d="M40.2344 168.498L34.9424 41.134H71.5951L76.8925 168.498H40.2344Z" fill="white"/>
<path d="M150.786 120.972C151.316 106.514 151.845 86.4838 150.728 79.2337L148.902 77.8207C148.902 77.8207 149.299 79.1702 149.511 101.323C149.723 123.475 149.982 117.68 149.76 120.972H150.786Z" fill="#E0E0E0"/>
<path d="M154.183 73.0785C157.559 68.5009 164.667 65.2463 172.028 65.2621C174.917 65.2621 163.423 70.5859 158.771 76.4548C155.157 81.0113 151.172 88.6795 149.87 92.9343C150.495 83.9801 150.823 77.6508 154.183 73.0785Z" fill="#E0E0E0"/>
<path d="M147.412 85.0026C144.311 80.2397 137.405 76.5723 130.06 76.1595C127.176 75.9955 138.337 81.9808 142.639 88.1037C145.978 92.8666 149.519 100.752 150.577 105.081C150.461 96.1053 150.519 89.7707 147.412 85.0026Z" fill="#E0E0E0"/>
<path d="M148.797 65.4339C145.971 59.8772 139.377 54.5164 132.206 52.336C129.385 51.4787 141.065 61.2584 144.404 68.7414C146.997 74.5627 150.141 81.8763 150.966 86.4962C151.273 77.3833 151.617 70.9958 148.797 65.4339Z" fill="#E0E0E0"/>
<path d="M150.102 127.597C151.82 127.597 153.473 126.939 154.721 125.758C155.969 124.577 156.717 122.963 156.812 121.247L157.405 110.927H142.799L143.397 121.247C143.49 122.962 144.237 124.576 145.485 125.758C146.732 126.939 148.384 127.597 150.102 127.597Z" fill="#F0F0F0"/>
<path d="M141.857 113.283H158.352L158.823 109.002H141.381L141.857 113.283Z" fill="#EBEBEB"/>
<path d="M211.983 42.4202H222.906V12.7847H211.983V42.4202Z" fill="#E6E6E6"/>
<path d="M211.985 12.7905H206.571V40.0446H211.985V12.7905Z" fill="#F5F5F5"/>
<path d="M195.648 42.4202H206.571V12.7847H195.648V42.4202Z" fill="#E6E6E6"/>
<path d="M195.646 12.7905H190.232V40.0446H195.646V12.7905Z" fill="#F5F5F5"/>
<path d="M179.31 42.4202H190.232V12.7847H179.31V42.4202Z" fill="#E6E6E6"/>
<path d="M179.309 12.7905H173.896V40.0446H179.309V12.7905Z" fill="#F5F5F5"/>
<path d="M162.971 42.4202H173.894V12.7847H162.971V42.4202Z" fill="#E6E6E6"/>
<path d="M162.968 12.7905H157.555V40.0446H162.968V12.7905Z" fill="#F5F5F5"/>
<path d="M146.638 42.4202H157.561V12.7847H146.638V42.4202Z" fill="#E6E6E6"/>
<path d="M146.632 12.7905H141.218V40.0446H146.632V12.7905Z" fill="#F5F5F5"/>
<path d="M130.295 42.4202H141.218V12.7847H130.295V42.4202Z" fill="#E6E6E6"/>
<path d="M130.297 12.7905H124.883V40.0446H130.297V12.7905Z" fill="#F5F5F5"/>
<path d="M113.96 42.4202H124.883V12.7847H113.96V42.4202Z" fill="#E6E6E6"/>
<path d="M113.962 12.7905H108.548V40.0446H113.962V12.7905Z" fill="#F5F5F5"/>
<path d="M97.6251 42.4202H108.548V12.7847H97.6251V42.4202Z" fill="#E6E6E6"/>
<path d="M132.302 197.16C188.971 197.16 234.91 194.478 234.91 191.169C234.91 187.861 188.971 185.179 132.302 185.179C75.6333 185.179 29.6943 187.861 29.6943 191.169C29.6943 194.478 75.6333 197.16 132.302 197.16Z" fill="#F5F5F5"/>
<path d="M186.498 87.0699L188.747 90.5098L192.092 89.8165L189.567 85.5405L186.498 87.0699Z" fill="#9F5B53"/>
<path d="M192.876 57.5881C193.352 58.165 193.749 58.6783 194.156 59.2393C194.564 59.8002 194.955 60.34 195.342 60.901C196.114 62.0176 196.85 63.166 197.538 64.3461C198.226 65.5262 198.893 66.7328 199.475 67.9976C199.787 68.6168 200.052 69.273 200.337 69.9133C200.623 70.5537 200.867 71.2258 201.073 71.919L201.242 72.4482L201.327 72.7075C201.375 72.861 201.422 73.0251 201.454 73.1785C201.57 73.7278 201.61 74.2907 201.57 74.8508C201.501 75.7283 201.31 76.592 201.004 77.4175C200.486 78.7931 199.823 80.1095 199.025 81.3442C197.539 83.6362 195.814 85.7648 193.881 87.6946L191.568 85.8847C192.84 83.7146 194.002 81.482 195.051 79.1956C195.532 78.1518 195.917 77.0659 196.199 75.9516C196.304 75.5331 196.352 75.1023 196.342 74.6709C196.341 74.5796 196.322 74.4894 196.284 74.4063L196.199 74.2052L196.024 73.803C195.034 71.5767 193.866 69.4336 192.532 67.3943C191.865 66.3359 191.161 65.3145 190.452 64.2826C189.743 63.2506 188.97 62.2187 188.271 61.282L192.876 57.5881Z" fill="#9F5B53"/>
<path d="M191.567 54.986C195.214 55.8222 199.394 65.7554 199.394 65.7554L192.096 70.7722C190.275 68.1616 188.657 65.4139 187.26 62.5537C185.095 58.0078 187.863 54.134 191.567 54.986Z" fill="#8953E3"/>
<path opacity="0.8" d="M191.567 54.986C195.214 55.8222 199.394 65.7554 199.394 65.7554L192.096 70.7722C190.275 68.1616 188.657 65.4139 187.26 62.5537C185.095 58.0078 187.863 54.134 191.567 54.986Z" fill="white"/>
<path d="M188.976 61.3185L192.437 70.5319L192.093 70.7701C192.093 70.7701 190.595 68.6533 188.976 65.8326V61.3185Z" fill="#8953E3"/>
<path opacity="0.6" d="M188.976 61.3185L192.437 70.5319L192.093 70.7701C192.093 70.7701 190.595 68.6533 188.976 65.8326V61.3185Z" fill="white"/>
<path d="M179.736 187.68H175.846L175.46 178.678H179.35L179.736 187.68Z" fill="#9F5B53"/>
<path d="M203.08 187.68H199.19L197.237 178.678H201.122L203.08 187.68Z" fill="#9F5B53"/>
<path d="M175.46 178.68L175.661 183.316H179.551L179.35 178.68H175.46Z" fill="#8A4743"/>
<path d="M201.127 178.68H197.237L198.243 183.316H202.132L201.127 178.68Z" fill="#8A4743"/>
<path d="M176.953 88.7923C176.953 88.7923 181.367 118.502 183.785 129.631C186.431 141.803 196.433 182.425 196.433 182.425H203.556C203.556 182.425 196.962 142.803 195.449 130.716C193.808 117.618 190.374 88.7711 190.374 88.7711L176.953 88.7923Z" fill="#8953E3"/>
<path opacity="0.5" d="M176.953 88.7923C176.953 88.7923 181.367 118.502 183.785 129.631C186.431 141.803 196.433 182.425 196.433 182.425H203.556C203.556 182.425 196.962 142.803 195.449 130.716C193.808 117.618 190.374 88.7711 190.374 88.7711L176.953 88.7923Z" fill="black"/>
<path opacity="0.4" d="M179.74 99.3724C184.842 100.373 184.302 119.398 183.688 129.183C182.217 122.266 180.063 108.956 178.592 99.51C178.948 99.3346 179.353 99.2861 179.74 99.3724Z" fill="black"/>
<path d="M169.574 88.79C169.574 88.79 169.044 117.854 169.463 129.713C169.902 142.044 174.225 182.422 174.225 182.422H180.809C180.809 182.422 181.052 142.764 181.338 130.655C181.655 117.452 183.248 88.79 183.248 88.79H169.574Z" fill="#8953E3"/>
<path opacity="0.5" d="M169.574 88.79C169.574 88.79 169.044 117.854 169.463 129.713C169.902 142.044 174.225 182.422 174.225 182.422H180.809C180.809 182.422 181.052 142.764 181.338 130.655C181.655 117.452 183.248 88.79 183.248 88.79H169.574Z" fill="black"/>
<path d="M192.411 85.0576L189.569 85.5445L192.094 89.8205C192.094 89.8205 194.073 88.8679 194.433 87.021L192.411 85.0576Z" fill="#9F5B53"/>
<path d="M173.631 40.5357C173.631 40.848 173.466 41.102 173.26 41.102C173.054 41.102 172.89 40.848 172.89 40.5357C172.89 40.2235 173.054 39.9695 173.26 39.9695C173.466 39.9695 173.631 40.2182 173.631 40.5357Z" fill="#263238"/>
<path d="M173.493 41.1028C173.118 42.0612 172.614 42.9639 171.995 43.7859C172.209 43.939 172.454 44.0435 172.713 44.0919C172.972 44.1404 173.238 44.1316 173.493 44.0663V41.1028Z" fill="#892B29"/>
<path d="M174.742 38.8025C174.703 38.803 174.666 38.7899 174.636 38.7655C174.452 38.624 174.237 38.5286 174.008 38.4872C173.78 38.4458 173.545 38.4595 173.323 38.5274C173.301 38.5358 173.277 38.5398 173.254 38.539C173.23 38.5383 173.206 38.5328 173.185 38.523C173.163 38.5132 173.144 38.4991 173.128 38.4817C173.111 38.4643 173.099 38.4438 173.09 38.4215C173.081 38.3993 173.076 38.3755 173.076 38.3513C173.076 38.3272 173.081 38.3034 173.09 38.2811C173.1 38.2589 173.113 38.2388 173.131 38.222C173.148 38.2052 173.169 38.1921 173.191 38.1834C173.47 38.0935 173.766 38.0725 174.054 38.1223C174.343 38.1721 174.615 38.2911 174.847 38.4691C174.868 38.4823 174.885 38.4996 174.898 38.5199C174.912 38.5401 174.921 38.5629 174.925 38.5868C174.928 38.6107 174.927 38.6352 174.921 38.6586C174.916 38.6821 174.905 38.7041 174.89 38.7232C174.874 38.7481 174.852 38.7686 174.826 38.7825C174.8 38.7965 174.771 38.8034 174.742 38.8025Z" fill="#263238"/>
<path d="M183.753 44.1514C183.192 46.9985 182.637 52.2059 184.627 54.1057C184.627 54.1057 183.849 56.9899 178.562 56.9899C172.741 56.9899 175.789 54.1057 175.789 54.1057C178.964 53.349 178.879 50.994 178.324 48.7872L183.753 44.1514Z" fill="#9F5B53"/>
<path d="M185.39 55.0961C185.808 54.1859 186.263 53.1381 185.316 52.81C184.257 52.4501 178.558 52.085 176.589 52.757C176.329 52.829 176.086 52.9518 175.875 53.1183C175.663 53.2848 175.486 53.4916 175.354 53.7269C175.223 53.9622 175.14 54.2212 175.109 54.4889C175.078 54.7566 175.101 55.0278 175.176 55.2867L185.39 55.0961Z" fill="#8953E3"/>
<path d="M197.629 187.871C197.464 187.892 197.297 187.881 197.137 187.838C196.977 187.794 196.828 187.719 196.697 187.617C196.65 187.553 196.625 187.476 196.625 187.397C196.625 187.318 196.65 187.241 196.697 187.177C196.726 187.123 196.767 187.075 196.816 187.038C196.866 187 196.922 186.974 196.983 186.96C197.554 186.833 198.623 187.564 198.671 187.595C198.686 187.606 198.697 187.621 198.703 187.638C198.71 187.655 198.712 187.673 198.708 187.691C198.705 187.708 198.697 187.724 198.685 187.736C198.672 187.748 198.656 187.756 198.639 187.759C198.307 187.831 197.968 187.868 197.629 187.871ZM197.147 187.13H197.031C196.995 187.137 196.961 187.152 196.932 187.174C196.902 187.196 196.878 187.224 196.861 187.257C196.777 187.405 196.829 187.468 196.861 187.49C197.025 187.712 197.819 187.712 198.401 187.617C198.024 187.366 197.595 187.204 197.147 187.14V187.13Z" fill="#8953E3"/>
<path d="M198.622 187.773H198.58C198.178 187.551 197.4 186.714 197.479 186.27C197.493 186.201 197.53 186.139 197.584 186.095C197.638 186.051 197.706 186.026 197.776 186.026C197.845 186.019 197.916 186.025 197.983 186.045C198.05 186.065 198.113 186.099 198.167 186.143C198.617 186.513 198.696 187.635 198.696 187.683C198.699 187.7 198.696 187.717 198.688 187.732C198.681 187.747 198.669 187.759 198.654 187.768C198.644 187.772 198.633 187.773 198.622 187.773ZM197.839 186.185H197.797C197.675 186.185 197.664 186.259 197.659 186.281C197.612 186.54 198.109 187.18 198.506 187.482C198.478 187.04 198.32 186.616 198.051 186.265C197.99 186.219 197.915 186.194 197.839 186.196V186.185Z" fill="#8953E3"/>
<path d="M174.284 187.867C173.786 187.867 173.305 187.798 173.141 187.576C173.1 187.517 173.078 187.446 173.078 187.375C173.078 187.303 173.1 187.233 173.141 187.174C173.171 187.119 173.213 187.071 173.263 187.034C173.313 186.997 173.371 186.97 173.432 186.957C174.072 186.782 175.437 187.555 175.496 187.586C175.511 187.596 175.523 187.611 175.531 187.628C175.539 187.645 175.541 187.663 175.538 187.682C175.536 187.7 175.527 187.718 175.514 187.731C175.5 187.745 175.483 187.753 175.464 187.756C175.075 187.829 174.68 187.866 174.284 187.867ZM173.665 187.115C173.607 187.107 173.548 187.107 173.49 187.115C173.453 187.123 173.417 187.138 173.386 187.16C173.355 187.182 173.329 187.21 173.31 187.242C173.247 187.359 173.268 187.412 173.31 187.443C173.49 187.687 174.469 187.703 175.199 187.602C174.723 187.345 174.202 187.184 173.665 187.126V187.115Z" fill="#8953E3"/>
<path d="M175.459 187.773H175.422C174.951 187.567 174.025 186.715 174.093 186.286C174.093 186.18 174.183 186.053 174.437 186.027C174.532 186.012 174.628 186.019 174.72 186.047C174.811 186.074 174.896 186.121 174.967 186.185C175.464 186.588 175.565 187.635 175.57 187.683C175.572 187.699 175.57 187.716 175.563 187.73C175.557 187.745 175.546 187.758 175.533 187.768C175.522 187.774 175.509 187.777 175.496 187.778C175.484 187.779 175.471 187.777 175.459 187.773ZM174.512 186.185H174.453C174.289 186.185 174.279 186.27 174.273 186.291C174.231 186.556 174.866 187.217 175.332 187.503C175.286 187.059 175.101 186.64 174.803 186.307C174.721 186.237 174.619 186.198 174.512 186.196V186.185Z" fill="#8953E3"/>
<path d="M198.916 187.228H203.282C203.36 187.228 203.435 187.256 203.496 187.305C203.556 187.354 203.598 187.422 203.615 187.498L204.382 190.954C204.4 191.038 204.398 191.125 204.377 191.208C204.357 191.292 204.317 191.369 204.262 191.435C204.208 191.501 204.138 191.554 204.06 191.59C203.982 191.626 203.897 191.643 203.811 191.641C202.287 191.615 201.546 191.525 199.625 191.525C198.445 191.525 196.01 191.652 194.375 191.652C192.74 191.652 192.533 190.064 193.2 189.89C196.196 189.234 197.323 188.329 198.286 187.471C198.457 187.313 198.683 187.226 198.916 187.228Z" fill="#263238"/>
<path d="M175.873 187.228H180.107C180.185 187.228 180.26 187.255 180.321 187.305C180.381 187.354 180.423 187.422 180.44 187.498L181.207 190.954C181.226 191.037 181.225 191.123 181.205 191.206C181.186 191.289 181.147 191.367 181.093 191.433C181.039 191.499 180.971 191.552 180.894 191.588C180.816 191.625 180.732 191.643 180.646 191.641C179.117 191.615 176.905 191.525 174.979 191.525C172.73 191.525 170.782 191.652 168.141 191.652C166.554 191.652 166.104 190.064 166.771 189.89C169.814 189.223 172.296 189.154 174.926 187.535C175.206 187.344 175.535 187.238 175.873 187.228Z" fill="#263238"/>
<path d="M170.321 62.9391C168.781 65.2147 167.188 67.3368 165.468 69.443C163.75 71.5709 161.913 73.5992 159.965 75.5183L159.203 76.238L159.007 76.418L158.874 76.5397L158.679 76.709C158.427 76.9071 158.16 77.0841 157.879 77.2382C156.986 77.7081 156.003 77.9824 154.995 78.0426C153.458 78.1384 151.914 78.0118 150.412 77.6669C147.692 77.0642 145.053 76.1368 142.554 74.9044L143.522 72.1526C146.002 72.6459 148.51 72.987 151.032 73.1739C152.139 73.2641 153.253 73.2179 154.35 73.0363C154.664 72.9908 154.964 72.8751 155.228 72.6976V72.6606L155.265 72.6183L155.424 72.4436L156.048 71.7557C157.705 69.8664 159.308 67.8607 160.864 65.8021C162.42 63.7435 163.976 61.6478 165.463 59.5892L170.321 62.9391Z" fill="#9F5B53"/>
<path d="M172.117 63.5475C171.576 66.8306 170.157 69.9063 168.01 72.4487C167.925 70.5859 167.894 68.9136 167.899 67.416L172.117 63.5475Z" fill="#BED3FC"/>
<path d="M184.087 39.8699C183.855 43.7225 183.913 45.9875 181.971 47.9668C179.044 50.9409 174.292 49.1734 173.371 45.3207C172.545 41.8597 173.069 36.1443 176.843 34.6096C177.673 34.2686 178.576 34.1455 179.467 34.2521C180.358 34.3587 181.207 34.6914 181.933 35.2185C182.659 35.7457 183.238 36.4498 183.615 37.264C183.992 38.0781 184.155 38.9752 184.087 39.8699Z" fill="#9F5B53"/>
<path d="M176.604 37.3094C176.635 41.8394 178.106 47.396 182.488 47.0097C185.399 46.7557 187.611 41.4477 187.913 39.1986C188.373 35.7588 188.442 35.1026 186.505 34.7057C187.352 34.2453 187.659 32.0596 185.679 31.5304C182.928 30.8054 177.741 30.0963 179.371 28.4187C176.122 29.0061 175.307 30.308 175.9 31.8903C174 31.7421 172.83 30.7472 172.889 29.2443C169.74 30.5196 167.697 37.7327 176.604 37.3094Z" fill="#263238"/>
<path d="M178.869 40.9929C178.654 41.9271 178.137 42.7643 177.398 43.3743C176.419 44.1681 175.636 43.459 175.657 42.3159C175.657 41.284 176.218 39.6275 177.318 39.2783C178.419 38.929 179.139 39.8657 178.869 40.9929Z" fill="#9F5B53"/>
<path d="M189.453 35.4962C188.935 35.1663 188.343 34.9704 187.731 34.9261C187.118 34.8818 186.504 34.9904 185.944 35.2421C185.944 35.2421 188.146 32.2839 189.453 35.4962Z" fill="#263238"/>
<path d="M195.272 179.801C195.241 179.801 196.008 182.537 196.008 182.537H204.02L203.872 180.097L195.272 179.801Z" fill="#8953E3"/>
<path d="M172.946 179.801C172.914 179.801 173.317 182.537 173.317 182.537H181.329L181.546 180.097L172.946 179.801Z" fill="#8953E3"/>
<path d="M175.58 177.692C175.564 177.692 175.549 177.686 175.537 177.675C175.525 177.664 175.518 177.65 175.517 177.634C174.352 166.457 171.616 139.414 171.283 129.714C170.928 119.813 171.251 97.5967 171.357 91.024C171.357 90.9869 171.389 90.9657 171.426 90.9604C171.442 90.9617 171.458 90.9688 171.469 90.9804C171.481 90.9921 171.488 91.0075 171.489 91.024C171.384 97.5967 171.061 119.813 171.415 129.709C171.759 139.409 174.495 166.441 175.649 177.618C175.649 177.636 175.643 177.653 175.631 177.667C175.619 177.68 175.603 177.689 175.585 177.692H175.58Z" fill="#8953E3"/>
<path opacity="0.3" d="M175.58 177.692C175.564 177.692 175.549 177.686 175.537 177.675C175.525 177.664 175.518 177.65 175.517 177.634C174.352 166.457 171.616 139.414 171.283 129.714C170.928 119.813 171.251 97.5967 171.357 91.024C171.357 90.9869 171.389 90.9657 171.426 90.9604C171.442 90.9617 171.458 90.9688 171.469 90.9804C171.481 90.9921 171.488 91.0075 171.489 91.024C171.384 97.5967 171.061 119.813 171.415 129.709C171.759 139.409 174.495 166.441 175.649 177.618C175.649 177.636 175.643 177.653 175.631 177.667C175.619 177.68 175.603 177.689 175.585 177.692H175.58Z" fill="black"/>
<path d="M173.909 58.3327C174.438 62.0371 167.167 71.4199 167.167 71.4199L159.88 66.4031C159.88 66.4031 161.901 61.2222 165.304 57.8247C169.189 53.9773 173.348 54.3266 173.909 58.3327Z" fill="#8953E3"/>
<path opacity="0.8" d="M173.909 58.3327C174.438 62.0371 167.167 71.4199 167.167 71.4199L159.88 66.4031C159.88 66.4031 161.901 61.2222 165.304 57.8247C169.189 53.9773 173.348 54.3266 173.909 58.3327Z" fill="white"/>
<path d="M169.809 55.1857C169.809 55.1857 165.67 59.8586 169.576 88.7902H190.374C190.517 85.615 188.511 70.0246 191.586 54.9846C189.287 54.542 186.963 54.2486 184.626 54.1061C181.683 53.9366 178.732 53.9366 175.789 54.1061C173.77 54.3095 171.771 54.6704 169.809 55.1857Z" fill="#8953E3"/>
<path opacity="0.8" d="M169.809 55.1857C169.809 55.1857 165.67 59.8586 169.576 88.7902H190.374C190.517 85.615 188.511 70.0246 191.586 54.9846C189.287 54.542 186.963 54.2486 184.626 54.1061C181.683 53.9366 178.732 53.9366 175.789 54.1061C173.77 54.3095 171.771 54.6704 169.809 55.1857Z" fill="white"/>
<path d="M108.624 33.9473C110.285 26.6308 105.7 19.3532 98.3834 17.6923C91.067 16.0313 83.7894 20.6161 82.1285 27.9325C80.4675 35.249 85.0523 42.5266 92.3687 44.1875C99.6852 45.8485 106.963 41.2637 108.624 33.9473Z" fill="#8953E3"/>
<path opacity="0.2" d="M108.624 33.9473C110.285 26.6308 105.7 19.3532 98.3834 17.6923C91.067 16.0313 83.7894 20.6161 82.1285 27.9325C80.4675 35.249 85.0523 42.5266 92.3687 44.1875C99.6852 45.8485 106.963 41.2637 108.624 33.9473Z" fill="white"/>
<path d="M93.9807 48.5549C90.467 48.2835 87.1157 46.963 84.3614 44.7644C81.6071 42.5658 79.5766 39.5906 78.5332 36.2244L79.036 36.0657C80.0488 39.331 82.019 42.2168 84.6912 44.3493C87.3634 46.4818 90.6144 47.7626 94.023 48.0257L93.9807 48.5549Z" fill="#8953E3"/>
<path opacity="0.2" d="M93.9807 48.5549C90.467 48.2835 87.1157 46.963 84.3614 44.7644C81.6071 42.5658 79.5766 39.5906 78.5332 36.2244L79.036 36.0657C80.0488 39.331 82.019 42.2168 84.6912 44.3493C87.3634 46.4818 90.6144 47.7626 94.023 48.0257L93.9807 48.5549Z" fill="white"/>
<path d="M78.9618 26.0472L78.4326 25.899C79.1148 23.6197 80.2503 21.5016 81.7712 19.6719C83.2921 17.8422 85.1669 16.3386 87.2832 15.2513C89.3994 14.164 91.7136 13.5154 94.0867 13.3445C96.4598 13.1735 98.8429 13.4837 101.093 14.2565L100.924 14.7592C98.7395 14.0104 96.4264 13.7105 94.1233 13.8775C91.8203 14.0445 89.5746 14.675 87.5212 15.7311C85.4677 16.7872 83.6488 18.2473 82.1734 20.0236C80.698 21.7999 79.5967 23.856 78.9354 26.0684L78.9618 26.0472Z" fill="#8953E3"/>
<path opacity="0.2" d="M78.9618 26.0472L78.4326 25.899C79.1148 23.6197 80.2503 21.5016 81.7712 19.6719C83.2921 17.8422 85.1669 16.3386 87.2832 15.2513C89.3994 14.164 91.7136 13.5154 94.0867 13.3445C96.4598 13.1735 98.8429 13.4837 101.093 14.2565L100.924 14.7592C98.7395 14.0104 96.4264 13.7105 94.1233 13.8775C91.8203 14.0445 89.5746 14.675 87.5212 15.7311C85.4677 16.7872 83.6488 18.2473 82.1734 20.0236C80.698 21.7999 79.5967 23.856 78.9354 26.0684L78.9618 26.0472Z" fill="white"/>
<path d="M111.737 25.8188C110.5 21.8621 107.867 18.4899 104.328 16.3301L104.603 15.875C108.248 18.1054 110.959 21.5822 112.234 25.66L111.737 25.8188Z" fill="#8953E3"/>
<path opacity="0.2" d="M111.737 25.8188C110.5 21.8621 107.867 18.4899 104.328 16.3301L104.603 15.875C108.248 18.1054 110.959 21.5822 112.234 25.66L111.737 25.8188Z" fill="white"/>
<path d="M108.63 71.4452C110.291 64.1287 105.706 56.8511 98.3893 55.1902C91.0728 53.5293 83.7952 58.114 82.1343 65.4305C80.4734 72.7469 85.0581 80.0245 92.3746 81.6855C99.6911 83.3464 106.969 78.7616 108.63 71.4452Z" fill="#8953E3"/>
<path opacity="0.6" d="M108.63 71.4452C110.291 64.1287 105.706 56.8511 98.3893 55.1902C91.0728 53.5293 83.7952 58.114 82.1343 65.4305C80.4734 72.7469 85.0581 80.0245 92.3746 81.6855C99.6911 83.3464 106.969 78.7616 108.63 71.4452Z" fill="white"/>
<path d="M108.626 108.943C110.287 101.627 105.702 94.3489 98.3854 92.688C91.0689 91.0271 83.7913 95.6118 82.1304 102.928C80.4695 110.245 85.0542 117.522 92.3707 119.183C99.6872 120.844 106.965 116.259 108.626 108.943Z" fill="#8953E3"/>
<path opacity="0.6" d="M108.626 108.943C110.287 101.627 105.702 94.3489 98.3854 92.688C91.0689 91.0271 83.7913 95.6118 82.1304 102.928C80.4695 110.245 85.0542 117.522 92.3707 119.183C99.6872 120.844 106.965 116.259 108.626 108.943Z" fill="white"/>
<path d="M108.626 146.445C110.287 139.129 105.702 131.851 98.3854 130.19C91.0689 128.529 83.7913 133.114 82.1304 140.43C80.4695 147.747 85.0542 155.024 92.3707 156.685C99.6872 158.346 106.965 153.762 108.626 146.445Z" fill="#8953E3"/>
<path opacity="0.6" d="M108.626 146.445C110.287 139.129 105.702 131.851 98.3854 130.19C91.0689 128.529 83.7913 133.114 82.1304 140.43C80.4695 147.747 85.0542 155.024 92.3707 156.685C99.6872 158.346 106.965 153.762 108.626 146.445Z" fill="white"/>
<path d="M71.1257 33.939C72.7866 26.6225 68.2019 19.3449 60.8854 17.684C53.5689 16.023 46.2913 20.6078 44.6304 27.9242C42.9695 35.2407 47.5542 42.5183 54.8707 44.1792C62.1872 45.8402 69.4648 41.2554 71.1257 33.939Z" fill="#8953E3"/>
<path opacity="0.6" d="M71.1257 33.939C72.7866 26.6225 68.2019 19.3449 60.8854 17.684C53.5689 16.023 46.2913 20.6078 44.6304 27.9242C42.9695 35.2407 47.5542 42.5183 54.8707 44.1792C62.1872 45.8402 69.4648 41.2554 71.1257 33.939Z" fill="white"/>
<path d="M71.1315 71.4452C72.7925 64.1287 68.2077 56.8511 60.8913 55.1902C53.5748 53.5293 46.2972 58.114 44.6363 65.4305C42.9753 72.7469 47.5601 80.0245 54.8765 81.6855C62.193 83.3464 69.4706 78.7616 71.1315 71.4452Z" fill="#8953E3"/>
<path opacity="0.6" d="M71.1315 71.4452C72.7925 64.1287 68.2077 56.8511 60.8913 55.1902C53.5748 53.5293 46.2972 58.114 44.6363 65.4305C42.9753 72.7469 47.5601 80.0245 54.8765 81.6855C62.193 83.3464 69.4706 78.7616 71.1315 71.4452Z" fill="white"/>
<path d="M71.1276 108.943C72.7886 101.627 68.2038 94.3489 60.8874 92.688C53.5709 91.0271 46.2933 95.6118 44.6324 102.928C42.9714 110.245 47.5562 117.522 54.8726 119.183C62.1891 120.844 69.4667 116.259 71.1276 108.943Z" fill="#8953E3"/>
<path opacity="0.6" d="M71.1276 108.943C72.7886 101.627 68.2038 94.3489 60.8874 92.688C53.5709 91.0271 46.2933 95.6118 44.6324 102.928C42.9714 110.245 47.5562 117.522 54.8726 119.183C62.1891 120.844 69.4667 116.259 71.1276 108.943Z" fill="white"/>
<path d="M71.1276 146.443C72.7886 139.127 68.2038 131.849 60.8874 130.188C53.5709 128.527 46.2933 133.112 44.6324 140.428C42.9714 147.745 47.5562 155.022 54.8726 156.683C62.1891 158.344 69.4667 153.759 71.1276 146.443Z" fill="#8953E3"/>
<path opacity="0.6" d="M71.1276 146.443C72.7886 139.127 68.2038 131.849 60.8874 130.188C53.5709 128.527 46.2933 133.112 44.6324 140.428C42.9714 147.745 47.5562 155.022 54.8726 156.683C62.1891 158.344 69.4667 153.759 71.1276 146.443Z" fill="white"/>
<path d="M144.051 72.4361L141.198 69.4832L138.155 73.4099C138.155 73.4099 140.473 75.6431 143.23 74.9975L144.051 72.4361Z" fill="#9F5B53"/>
<path d="M137.28 67.8625L135.979 71.9798L138.159 73.4086L141.202 69.4819L137.28 67.8625Z" fill="#9F5B53"/>
<path d="M98.4336 68.0859C98.6696 67.385 99.0544 66.7435 99.5618 66.2055C100.069 65.6675 100.687 65.2457 101.373 64.9692C102.059 64.6926 102.796 64.5678 103.535 64.6034C104.274 64.639 104.996 64.8341 105.652 65.1752L102.477 63.5241C101.301 62.9302 100.393 61.9153 99.9317 60.6816C99.4708 59.4479 99.4914 58.0859 99.9895 56.8667C100.271 56.224 100.682 55.6459 101.196 55.1681C101.71 54.6903 102.317 54.3231 102.978 54.089C103.64 53.8549 104.343 53.7589 105.043 53.8071C105.743 53.8552 106.426 54.0464 107.049 54.3689L103.874 52.723C102.697 52.129 101.788 51.1133 101.327 49.8784C100.866 48.6434 100.887 47.2801 101.387 46.0603C101.668 45.4119 102.08 44.8287 102.597 44.3472C103.115 43.8656 103.726 43.4963 104.393 43.2622C105.06 43.0282 105.768 42.9345 106.473 42.9871C107.177 43.0396 107.864 43.2374 108.489 43.5678L93.4115 35.6826C92.3022 35.1282 91.4266 34.1968 90.9418 33.0554C90.4569 31.914 90.3944 30.6372 90.7654 29.4539C91.0027 28.7534 91.3886 28.1124 91.8966 27.5749C92.4047 27.0374 93.0228 26.616 93.7088 26.3396C94.3948 26.0632 95.1325 25.9383 95.8712 25.9734C96.61 26.0086 97.3324 26.203 97.9891 26.5432L129.741 43.1444L126.482 29.7661C126.16 28.4221 126.361 27.0062 127.043 25.8045C127.726 24.6028 128.838 23.7047 130.157 23.2915C131.476 22.8784 132.902 22.981 134.148 23.5787C135.394 24.1763 136.367 25.2245 136.87 26.5115L147.285 53.5645C148.176 55.8767 149.879 57.7858 152.074 58.9359L153.889 59.8832C154.167 60.0282 154.414 60.2267 154.615 60.4674C154.816 60.7081 154.968 60.9862 155.062 61.2856C155.155 61.5851 155.188 61.9001 155.16 62.2125C155.131 62.5249 155.041 62.8286 154.895 63.106L142.194 87.3701C141.9 87.9308 141.395 88.3521 140.791 88.5415C140.187 88.731 139.532 88.6732 138.971 88.3809L134.515 86.0524C132.827 85.1863 130.936 84.7948 129.043 84.9199C124.466 85.1756 119.906 84.1882 115.844 82.0622L101.027 74.3146C99.927 73.7514 99.0629 72.8163 98.588 71.6757C98.1132 70.5351 98.0585 69.263 98.4336 68.0859Z" fill="#8953E3"/>
<path d="M140.102 89.4344C139.59 89.4348 139.085 89.3114 138.631 89.0745L134.175 86.746C132.613 85.9466 130.866 85.5811 129.115 85.6876C124.396 85.9523 119.693 84.9356 115.504 82.7452L100.687 74.9976C99.4172 74.3482 98.4192 73.2697 97.8698 71.954C97.3204 70.6382 97.2553 69.1703 97.6859 67.811C97.9578 67.0001 98.4031 66.2581 98.9907 65.6367C99.5783 65.0152 100.294 64.5292 101.089 64.2124C101.304 64.1234 101.525 64.0491 101.75 63.9902C100.513 63.2485 99.5834 62.0871 99.1307 60.7175C98.6781 59.3479 98.7325 57.8612 99.2841 56.5284C99.604 55.7814 100.077 55.1097 100.672 54.5564C101.267 54.0032 101.972 53.5807 102.74 53.3161C102.883 53.2685 103.026 53.2208 103.168 53.1838C101.93 52.4429 101 51.2815 100.547 49.9116C100.095 48.5417 100.15 47.0547 100.702 45.722C101.023 44.976 101.496 44.3053 102.091 43.753C102.686 43.2007 103.39 42.779 104.158 42.515C104.29 42.4674 104.428 42.425 104.56 42.388L93.0448 36.3656C91.7755 35.7162 90.7774 34.6378 90.2281 33.322C89.6787 32.0062 89.6135 30.5383 90.0442 29.179C90.3182 28.3703 90.7638 27.6303 91.3504 27.0098C91.9369 26.3892 92.6507 25.9027 93.4427 25.5836C94.2347 25.2645 95.0863 25.1203 95.9393 25.1608C96.7922 25.2014 97.6263 25.4257 98.3845 25.8186L128.597 41.6312L125.744 29.9517C125.379 28.4124 125.611 26.7916 126.394 25.4168C127.177 24.042 128.453 23.0157 129.963 22.5453C131.474 22.0749 133.107 22.1955 134.532 22.8826C135.957 23.5698 137.068 24.7723 137.641 26.2472L148.056 53.3002C148.878 55.4331 150.449 57.1937 152.475 58.2536L154.284 59.2009C154.655 59.3939 154.984 59.6582 155.252 59.9786C155.52 60.2989 155.722 60.6691 155.847 61.0678C155.972 61.4665 156.017 61.8859 155.98 62.302C155.942 62.7182 155.823 63.1228 155.629 63.4927L142.928 87.7621C142.654 88.2719 142.246 88.6971 141.748 88.9919C141.25 89.2866 140.68 89.4396 140.102 89.4344ZM129.713 84.0947C131.521 84.0848 133.303 84.5115 134.91 85.3383L139.366 87.6668C139.551 87.7652 139.754 87.8258 139.963 87.8452C140.172 87.8646 140.383 87.8425 140.583 87.78C140.784 87.7175 140.969 87.6159 141.13 87.4811C141.291 87.3463 141.424 87.181 141.52 86.9947L154.221 62.7254C154.318 62.54 154.378 62.3371 154.397 62.1286C154.415 61.92 154.392 61.7098 154.329 61.5101C154.266 61.3104 154.165 61.1251 154.03 60.9649C153.895 60.8048 153.73 60.6729 153.544 60.5768L151.734 59.6295C149.374 58.3922 147.545 56.3379 146.59 53.8506L136.17 26.7976C135.751 25.6834 134.922 24.7717 133.853 24.2497C132.783 23.7277 131.554 23.6349 130.419 23.9905C129.283 24.346 128.326 25.1229 127.745 26.1617C127.165 27.2004 127.003 28.4221 127.295 29.5759L130.565 42.9595C130.602 43.1072 130.595 43.2621 130.545 43.4058C130.495 43.5495 130.405 43.6757 130.285 43.7692C130.165 43.8648 130.021 43.9232 129.868 43.9373C129.716 43.9514 129.563 43.9206 129.428 43.8486L97.6754 27.2474C97.122 26.9597 96.5129 26.7951 95.8899 26.765C95.2669 26.7348 94.6448 26.8399 94.0662 27.0728C93.4803 27.3011 92.9526 27.657 92.5214 28.1147C92.0903 28.5724 91.7665 29.1204 91.5736 29.7188C91.2575 30.7225 91.3086 31.8058 91.7177 32.7753C92.1268 33.7447 92.8673 34.5371 93.8069 35.0109L108.889 42.896C109.076 42.9936 109.216 43.1613 109.279 43.3623C109.342 43.5632 109.323 43.781 109.225 43.9677C109.177 44.0601 109.111 44.1421 109.031 44.209C108.951 44.2759 108.859 44.3264 108.759 44.3576C108.558 44.4207 108.34 44.4013 108.154 44.3037C107.627 44.0305 107.05 43.8683 106.458 43.8274C105.867 43.7864 105.273 43.8675 104.714 44.0656C104.152 44.259 103.637 44.5674 103.202 44.9711C102.766 45.3747 102.42 45.8648 102.184 46.41C101.763 47.4442 101.747 48.5991 102.139 49.6447C102.532 50.6902 103.303 51.5495 104.301 52.0513L107.476 53.7024C107.647 53.8081 107.771 53.9745 107.824 54.1681C107.877 54.3618 107.855 54.5683 107.761 54.7461C107.668 54.9239 107.511 55.0598 107.322 55.1264C107.132 55.1929 106.925 55.1852 106.741 55.1048C106.215 54.8326 105.639 54.671 105.048 54.6301C104.457 54.5891 103.864 54.6696 103.306 54.8667C102.744 55.0612 102.229 55.3707 101.794 55.7752C101.358 56.1797 101.012 56.6705 100.776 57.2163C100.357 58.2499 100.342 59.4036 100.734 60.4479C101.126 61.4922 101.897 62.3506 102.893 62.8524L106.069 64.5035C106.255 64.601 106.395 64.7687 106.459 64.9697C106.522 65.1707 106.502 65.3885 106.405 65.5751C106.307 65.7618 106.139 65.9021 105.938 65.9651C105.737 66.0281 105.52 66.0087 105.333 65.9112C104.779 65.6257 104.17 65.4628 103.547 65.4335C102.924 65.4043 102.302 65.5095 101.724 65.7418C101.14 65.9727 100.614 66.3295 100.184 66.7869C99.7545 67.2443 99.4308 67.791 99.2365 68.3879C98.9193 69.3915 98.9698 70.4752 99.3791 71.4449C99.7883 72.4147 100.529 73.207 101.47 73.6799L116.288 81.4275C120.214 83.457 124.613 84.3947 129.025 84.1423C129.258 84.1423 129.486 84.1053 129.713 84.1053V84.0947Z" fill="#8953E3"/>
<path d="M109.616 68.0362C109.487 68.0372 109.36 68.0063 109.246 67.9462L105.314 65.877C105.222 65.8287 105.14 65.7627 105.073 65.6827C105.006 65.6027 104.955 65.5103 104.924 65.4108C104.893 65.3113 104.882 65.2066 104.891 65.1027C104.9 64.9988 104.93 64.8978 104.978 64.8054C105.026 64.713 105.092 64.6309 105.172 64.564C105.252 64.4971 105.345 64.4466 105.444 64.4154C105.544 64.3842 105.648 64.3729 105.752 64.3822C105.856 64.3914 105.957 64.421 106.05 64.4693L110.003 66.5385C110.16 66.6206 110.286 66.7531 110.359 66.9147C110.432 67.0764 110.449 67.258 110.407 67.4304C110.365 67.6029 110.266 67.7562 110.127 67.866C109.987 67.9759 109.815 68.0358 109.638 68.0362H109.616Z" fill="#8953E3"/>
<path d="M111.036 57.23C110.907 57.2317 110.779 57.2007 110.665 57.1401L106.712 55.0709C106.612 55.0272 106.523 54.9635 106.448 54.8836C106.374 54.8037 106.317 54.7094 106.281 54.6066C106.245 54.5038 106.231 54.3946 106.238 54.2859C106.246 54.1772 106.277 54.0713 106.327 53.9748C106.378 53.8782 106.448 53.7932 106.533 53.7249C106.618 53.6566 106.716 53.6065 106.821 53.5778C106.926 53.549 107.036 53.5423 107.144 53.5579C107.252 53.5735 107.355 53.6111 107.448 53.6685L111.401 55.7324C111.558 55.8145 111.684 55.9469 111.757 56.1086C111.83 56.2703 111.847 56.4518 111.805 56.6243C111.763 56.7967 111.665 56.9501 111.525 57.0599C111.386 57.1697 111.213 57.2296 111.036 57.23Z" fill="#8953E3"/>
<path d="M112.447 46.4299C112.32 46.4284 112.195 46.3976 112.082 46.3399L108.129 44.2707C108.036 44.2224 107.954 44.1564 107.887 44.0764C107.82 43.9964 107.77 43.904 107.739 43.8045C107.707 43.705 107.696 43.6003 107.705 43.4964C107.715 43.3925 107.744 43.2915 107.792 43.199C107.841 43.1066 107.907 43.0246 107.987 42.9577C108.067 42.8908 108.159 42.8403 108.259 42.8091C108.358 42.7779 108.463 42.7666 108.567 42.7758C108.671 42.7851 108.772 42.8147 108.864 42.863L112.817 44.9322C112.975 45.0145 113.101 45.1474 113.174 45.3096C113.247 45.4718 113.264 45.6539 113.221 45.8267C113.178 45.9994 113.079 46.1528 112.938 46.2622C112.798 46.3716 112.625 46.4306 112.447 46.4299Z" fill="#8953E3"/>
<path opacity="0.3" d="M140.102 89.4344C139.59 89.4348 139.085 89.3114 138.631 89.0745L134.175 86.746C132.613 85.9466 130.866 85.5811 129.115 85.6876C124.396 85.9523 119.693 84.9356 115.504 82.7452L100.687 74.9976C99.4172 74.3482 98.4192 73.2697 97.8698 71.954C97.3204 70.6382 97.2553 69.1703 97.6859 67.811C97.9578 67.0001 98.4031 66.2581 98.9907 65.6367C99.5783 65.0152 100.294 64.5292 101.089 64.2124C101.304 64.1234 101.525 64.0491 101.75 63.9902C100.513 63.2485 99.5834 62.0871 99.1307 60.7175C98.6781 59.3479 98.7325 57.8612 99.2841 56.5284C99.604 55.7814 100.077 55.1097 100.672 54.5564C101.267 54.0032 101.972 53.5807 102.74 53.3161C102.883 53.2685 103.026 53.2208 103.168 53.1838C101.93 52.4429 101 51.2815 100.547 49.9116C100.095 48.5417 100.15 47.0547 100.702 45.722C101.023 44.976 101.496 44.3053 102.091 43.753C102.686 43.2007 103.39 42.779 104.158 42.515C104.29 42.4674 104.428 42.425 104.56 42.388L93.0448 36.3656C91.7755 35.7162 90.7774 34.6378 90.2281 33.322C89.6787 32.0062 89.6135 30.5383 90.0442 29.179C90.3182 28.3703 90.7638 27.6303 91.3504 27.0098C91.9369 26.3892 92.6507 25.9027 93.4427 25.5836C94.2347 25.2645 95.0863 25.1203 95.9393 25.1608C96.7922 25.2014 97.6263 25.4257 98.3845 25.8186L128.597 41.6312L125.744 29.9517C125.379 28.4124 125.611 26.7916 126.394 25.4168C127.177 24.042 128.453 23.0157 129.963 22.5453C131.474 22.0749 133.107 22.1955 134.532 22.8826C135.957 23.5698 137.068 24.7723 137.641 26.2472L148.056 53.3002C148.878 55.4331 150.449 57.1937 152.475 58.2536L154.284 59.2009C154.655 59.3939 154.984 59.6582 155.252 59.9786C155.52 60.2989 155.722 60.6691 155.847 61.0678C155.972 61.4665 156.017 61.8859 155.98 62.302C155.942 62.7182 155.823 63.1228 155.629 63.4927L142.928 87.7621C142.654 88.2719 142.246 88.6971 141.748 88.9919C141.25 89.2866 140.68 89.4396 140.102 89.4344ZM129.713 84.0947C131.521 84.0848 133.303 84.5115 134.91 85.3383L139.366 87.6668C139.551 87.7652 139.754 87.8258 139.963 87.8452C140.172 87.8646 140.383 87.8425 140.583 87.78C140.784 87.7175 140.969 87.6159 141.13 87.4811C141.291 87.3463 141.424 87.181 141.52 86.9947L154.221 62.7254C154.318 62.54 154.378 62.3371 154.397 62.1286C154.415 61.92 154.392 61.7098 154.329 61.5101C154.266 61.3104 154.165 61.1251 154.03 60.9649C153.895 60.8048 153.73 60.6729 153.544 60.5768L151.734 59.6295C149.374 58.3922 147.545 56.3379 146.59 53.8506L136.17 26.7976C135.751 25.6834 134.922 24.7717 133.853 24.2497C132.783 23.7277 131.554 23.6349 130.419 23.9905C129.283 24.346 128.326 25.1229 127.745 26.1617C127.165 27.2004 127.003 28.4221 127.295 29.5759L130.565 42.9595C130.602 43.1072 130.595 43.2621 130.545 43.4058C130.495 43.5495 130.405 43.6757 130.285 43.7692C130.165 43.8648 130.021 43.9232 129.868 43.9373C129.716 43.9514 129.563 43.9206 129.428 43.8486L97.6754 27.2474C97.122 26.9597 96.5129 26.7951 95.8899 26.765C95.2669 26.7348 94.6448 26.8399 94.0662 27.0728C93.4803 27.3011 92.9526 27.657 92.5214 28.1147C92.0903 28.5724 91.7665 29.1204 91.5736 29.7188C91.2575 30.7225 91.3086 31.8058 91.7177 32.7753C92.1268 33.7447 92.8673 34.5371 93.8069 35.0109L108.889 42.896C109.076 42.9936 109.216 43.1613 109.279 43.3623C109.342 43.5632 109.323 43.781 109.225 43.9677C109.177 44.0601 109.111 44.1421 109.031 44.209C108.951 44.2759 108.859 44.3264 108.759 44.3576C108.558 44.4207 108.34 44.4013 108.154 44.3037C107.627 44.0305 107.05 43.8683 106.458 43.8274C105.867 43.7864 105.273 43.8675 104.714 44.0656C104.152 44.259 103.637 44.5674 103.202 44.9711C102.766 45.3747 102.42 45.8648 102.184 46.41C101.763 47.4442 101.747 48.5991 102.139 49.6447C102.532 50.6902 103.303 51.5495 104.301 52.0513L107.476 53.7024C107.647 53.8081 107.771 53.9745 107.824 54.1681C107.877 54.3618 107.855 54.5683 107.761 54.7461C107.668 54.9239 107.511 55.0598 107.322 55.1264C107.132 55.1929 106.925 55.1852 106.741 55.1048C106.215 54.8326 105.639 54.671 105.048 54.6301C104.457 54.5891 103.864 54.6696 103.306 54.8667C102.744 55.0612 102.229 55.3707 101.794 55.7752C101.358 56.1797 101.012 56.6705 100.776 57.2163C100.357 58.2499 100.342 59.4036 100.734 60.4479C101.126 61.4922 101.897 62.3506 102.893 62.8524L106.069 64.5035C106.255 64.601 106.395 64.7687 106.459 64.9697C106.522 65.1707 106.502 65.3885 106.405 65.5751C106.307 65.7618 106.139 65.9021 105.938 65.9651C105.737 66.0281 105.52 66.0087 105.333 65.9112C104.779 65.6257 104.17 65.4628 103.547 65.4335C102.924 65.4043 102.302 65.5095 101.724 65.7418C101.14 65.9727 100.614 66.3295 100.184 66.7869C99.7545 67.2443 99.4308 67.791 99.2365 68.3879C98.9193 69.3915 98.9698 70.4752 99.3791 71.4449C99.7883 72.4147 100.529 73.207 101.47 73.6799L116.288 81.4275C120.214 83.457 124.613 84.3947 129.025 84.1423C129.258 84.1423 129.486 84.1053 129.713 84.1053V84.0947Z" fill="black"/>
</svg>
