<svg width="65" height="41" viewBox="0 0 65 41" fill="none" xmlns="http://www.w3.org/2000/svg">
<path d="M2.59241 0C1.16095 0 0 1.16915 0 2.61146V38.3885C0 39.8308 1.16153 41 2.59241 41H62.2179C63.6493 41 64.8103 39.8308 64.8103 38.3885V2.61146C64.8103 1.16922 63.6487 0 62.2179 0H2.59241ZM38.7079 12.2188C40.2853 12.2188 41.5494 12.5698 42.3555 12.8961L41.8046 16.3869L41.4401 16.2013C40.6891 15.8749 39.7245 15.5608 38.394 15.5831C36.8012 15.5831 36.0649 16.2988 36.0649 16.9685C36.0556 17.723 36.9253 18.2206 38.3474 18.9658C40.6946 20.1155 41.7795 21.5095 41.7642 23.342C41.7326 26.6858 38.9563 28.8465 34.6796 28.8465C32.855 28.8263 31.0971 28.4372 30.1469 27.9875L30.7181 24.3804L31.2426 24.6375C32.5788 25.239 33.444 25.4822 35.0725 25.4822C36.2418 25.4822 37.497 24.989 37.5069 23.9092C37.5145 23.2041 36.9823 22.7014 35.3985 21.9118C33.8553 21.1412 31.8093 19.8503 31.832 17.5356C31.8561 14.4044 34.6878 12.2188 38.7079 12.2188ZM5.73163 12.7309H12.2998C13.1842 12.7646 13.8983 13.0514 14.1448 14.0183L15.5606 21.3793C15.5608 21.38 15.5603 21.3827 15.5606 21.3834L15.9858 23.5889L19.9737 12.7309H24.2876L17.8755 28.6241L13.5656 28.6282L10.1347 15.8034C12.1761 16.8928 13.9141 18.1533 14.9206 19.8879C14.6611 19.3391 14.3191 18.7195 13.8816 18.1089C13.372 17.3978 12.2716 16.4797 11.8117 16.089C10.2089 14.728 8.03226 13.6288 5.68101 13.0471L5.73163 12.7309ZM26.0031 12.7492H30.2219L27.5828 28.618H23.3641L26.0031 12.7492ZM49.831 12.7492H53.027L56.3728 28.618H52.5368C52.5368 28.618 52.1563 26.7949 52.0325 26.2391C51.4296 26.2391 47.2128 26.233 46.7383 26.233C46.5778 26.6626 45.8675 28.6179 45.8675 28.6179H41.5272L47.6659 14.0672C48.1006 13.0332 48.8414 12.7492 49.831 12.7492ZM50.1449 17.0173C49.9373 17.6076 49.5759 18.5608 49.6001 18.5189C49.6001 18.5189 48.3015 22.0079 47.9617 22.9136L51.3743 22.9115C51.2098 22.1247 50.4224 18.3722 50.4224 18.3722L50.1449 17.0175V17.0173Z" fill="white"/>
</svg>
